<svg width="1240" height="886" version="1.1" xmlns="http://www.w3.org/2000/svg" desc="Created with imagetracer.js version 1.2.6" ><path fill="rgb(0,0,0)" stroke="rgb(0,0,0)" stroke-width="1" opacity="1" d="M 0 0 L 1240 0 L 1240 886 L 0 886 L 0 0 Z M 323 286 L 323 292 L 326 293 L 326 335 Q 331 336 333 334 L 333 293 L 335 292 Q 337 291 336 288 L 335 286 L 323 286 Z M 359 286 L 357 288 L 358 289 L 358 335 L 364 335 L 364 335 L 364 311 L 366 312 L 366 334 Q 368 337 373 335 L 373 287 Q 373 285 368 286 L 366 288 L 366 305 L 364 305 L 364 286 L 359 286 Z M 396 286 L 396 335 L 397 335 L 406 335 Q 408 334 407 331 L 403 329 L 403 312 L 406 311 Q 408 310 407 307 L 405 305 L 403 306 L 403 293 L 406 292 Q 408 291 407 288 L 406 286 L 396 286 Z M 245 326 L 244 327 L 230 328 L 220 332 L 214 338 L 211 344 L 209 353 L 209 416 Q 211 425 216 431 L 224 437 L 261 457 L 264 463 L 264 520 L 263 523 L 260 525 L 253 524 L 251 520 L 251 460 L 209 460 L 209 529 L 212 541 L 215 546 L 225 552 L 239 555 L 277 555 L 291 552 L 298 548 L 304 537 L 305 524 L 306 523 L 306 457 L 303 445 L 300 440 Q 294 432 286 428 L 258 414 Q 252 412 251 406 L 251 362 L 253 357 L 258 356 L 261 357 L 264 363 L 264 406 L 306 406 L 306 359 L 305 358 L 304 346 L 300 337 Q 295 330 286 328 L 271 327 L 270 326 L 245 326 Z M 555 362 Q 551 363 552 367 L 548 371 L 539 375 Q 532 376 529 373 L 525 374 L 526 379 L 526 382 L 522 386 Q 523 390 520 391 Q 517 390 518 393 L 521 394 L 522 401 L 522 410 L 521 411 L 522 480 L 523 481 L 522 543 L 517 548 L 517 551 L 522 556 L 522 558 L 526 560 L 534 559 Q 536 558 534 557 L 537 554 L 551 554 L 552 553 L 552 544 L 555 541 L 555 487 L 556 486 L 557 467 L 560 464 L 573 458 L 587 458 L 589 455 L 593 440 L 592 428 L 589 423 L 590 416 L 596 412 L 607 409 Q 611 410 613 408 L 633 408 L 634 407 L 633 388 L 632 387 L 632 375 L 634 373 L 632 369 Q 628 370 629 368 L 626 365 L 622 366 L 620 365 L 607 367 L 604 369 L 596 370 L 571 378 L 566 378 L 559 375 Q 556 372 557 366 L 555 362 Z M 354 368 L 353 369 L 341 370 L 334 373 L 327 380 L 323 393 L 323 531 L 327 544 L 338 552 L 346 554 L 356 554 L 357 555 L 384 554 L 398 549 Q 403 545 405 539 L 407 528 L 407 395 L 405 385 L 401 378 L 398 374 L 385 369 L 354 368 Z M 478 368 Q 467 370 462 376 L 460 376 L 460 370 L 425 370 L 424 371 L 424 597 L 460 597 L 461 596 L 460 595 L 460 547 L 471 553 L 480 555 L 491 554 L 497 551 Q 502 547 505 540 L 508 523 L 508 400 L 507 399 L 507 391 L 503 379 Q 497 367 478 368 Z M 675 368 L 674 369 L 663 370 L 655 373 L 647 382 L 644 395 L 644 431 L 646 432 L 647 431 L 680 431 L 680 401 L 681 397 L 685 394 L 690 395 L 692 401 L 692 437 L 656 457 Q 646 463 644 476 L 644 526 L 645 527 L 646 539 L 649 546 L 655 551 L 661 554 Q 665 553 667 555 Q 683 555 691 547 L 692 547 L 692 554 L 693 554 L 728 554 L 728 394 L 725 382 L 723 379 L 716 372 L 706 369 Q 699 371 698 368 L 675 368 Z M 800 368 Q 790 370 784 376 L 783 371 Q 782 368 781 370 L 747 370 L 746 371 L 746 553 L 748 554 L 782 554 L 783 553 L 783 399 Q 784 395 791 396 L 794 402 L 794 554 L 829 554 L 830 553 L 830 397 L 827 383 L 823 376 Q 816 367 800 368 Z M 879 368 L 878 369 L 866 370 L 856 375 L 851 381 L 848 391 L 848 533 L 849 538 L 854 547 L 866 553 L 880 554 L 881 555 L 909 554 L 923 549 L 929 541 L 932 525 L 932 399 L 931 398 L 930 386 L 925 377 Q 919 371 910 369 L 879 368 Z M 979 368 L 978 369 L 966 370 L 957 374 Q 950 378 948 388 Q 946 395 947 406 L 946 407 L 947 409 L 947 445 L 951 454 L 960 461 L 992 478 L 994 483 L 994 525 L 993 527 Q 992 530 987 529 L 983 525 L 983 486 L 947 486 L 947 532 L 949 541 L 952 546 L 959 551 L 970 554 L 979 554 L 980 555 L 1008 554 L 1022 549 Q 1027 545 1029 538 L 1030 533 L 1030 516 L 1031 515 L 1030 472 L 1026 463 L 1018 455 L 989 440 L 983 433 L 983 399 L 984 397 Q 985 393 991 394 L 994 399 L 994 431 L 1031 431 L 1030 391 L 1026 379 Q 1021 371 1010 369 Q 1003 371 1002 368 L 979 368 Z " /><path fill="rgb(0,0,0)" stroke="rgb(0,0,0)" stroke-width="1" opacity="1" d="M 363.5 394 Q 368.3 394.3 370 397.5 L 370 525.5 L 369 528 L 363.5 529 L 360 526.5 L 359 523.5 L 359 398.5 L 361.5 395 L 363.5 394 Z " /><path fill="rgb(0,0,0)" stroke="rgb(0,0,0)" stroke-width="1" opacity="1" d="M 888.5 394 L 894 396.5 L 895 398.5 L 895 525.5 Q 894 530 887.5 529 L 884 524.5 L 884 398.5 L 886.5 395 L 888.5 394 Z " /><path fill="rgb(0,0,0)" stroke="rgb(0,0,0)" stroke-width="1" opacity="1" d="M 464.5 396 L 470 397 L 472 404.5 L 472 518.5 L 471 523.5 L 467.5 527 L 462 526 L 460 519.5 L 460 403.5 L 462 397 L 464.5 396 Z " /><path fill="rgb(0,0,0)" stroke="rgb(0,0,0)" stroke-width="1" opacity="1" d="M 570.5 416 Q 579.6 416.4 583 422.5 Q 587.4 427.6 586 438.5 Q 584.3 447.8 577.5 452 Q 574 454.5 566.5 453 L 561 448.5 Q 558 444.5 559 436.5 L 561.5 433 Q 571.9 433.1 576 439.5 L 577 443 Q 580.7 444.4 579 438.5 L 575.5 434 L 569 429.5 Q 569.6 426.8 563.5 428 L 561 427 L 560 422.5 Q 563.1 417.1 570.5 416 Z " /><path fill="rgb(0,0,0)" stroke="rgb(0,0,0)" stroke-width="1" opacity="1" d="M 690.5 469 L 692 469.5 L 692 522.5 L 689.5 528 L 684.5 529 L 682 528 L 680 522.5 L 680 479.5 L 685.5 472 L 690.5 469 Z " /><path fill="rgb(249,0,1)" stroke="rgb(249,0,1)" stroke-width="1" opacity="1" d="M 358.5 287 L 359 333.5 L 358 333.5 L 358.5 287 Z " /><path fill="rgb(249,0,1)" stroke="rgb(249,0,1)" stroke-width="1" opacity="1" d="M 372.5 287 L 373 333.5 L 372 333.5 L 372.5 287 Z " /><path fill="rgb(249,0,1)" stroke="rgb(249,0,1)" stroke-width="1" opacity="1" d="M 396.5 287 L 397 332.5 L 396 332.5 L 396.5 287 Z " /><path fill="rgb(249,0,1)" stroke="rgb(249,0,1)" stroke-width="1" opacity="1" d="M 367.5 288 L 368 304.5 L 366 305.5 L 367 304.5 L 367.5 288 Z " /><path fill="rgb(249,0,1)" stroke="rgb(249,0,1)" stroke-width="1" opacity="1" d="M 402.5 306 L 405 306.5 L 402.5 307 L 402.5 306 Z " /><path fill="rgb(249,0,1)" stroke="rgb(249,0,1)" stroke-width="1" opacity="1" d="M 367.5 311 L 368 331.5 L 367 331.5 L 367.5 311 Z " /><path fill="rgb(249,0,1)" stroke="rgb(249,0,1)" stroke-width="1" opacity="1" d="M 253.5 356 L 251.5 359 L 253.5 356 Z " /><path fill="rgb(249,0,1)" stroke="rgb(249,0,1)" stroke-width="1" opacity="1" d="M 209.5 358 L 210 360.5 L 209 360.5 L 209.5 358 Z " /><path fill="rgb(249,0,1)" stroke="rgb(249,0,1)" stroke-width="1" opacity="1" d="M 250.5 360 L 251 406.5 L 250 406.5 L 250.5 360 Z " /><path fill="rgb(249,0,1)" stroke="rgb(249,0,1)" stroke-width="1" opacity="1" d="M 264.5 364 L 265 404.5 L 264 404.5 L 264.5 364 Z " /><path fill="rgb(249,0,1)" stroke="rgb(249,0,1)" stroke-width="1" opacity="1" d="M 614.5 366 L 624 366.5 L 614.5 367 L 614.5 366 Z " /><path fill="rgb(249,0,1)" stroke="rgb(249,0,1)" stroke-width="1" opacity="1" d="M 625.5 366 L 628 367.5 L 626.5 367 L 625.5 366 Z " /><path fill="rgb(249,0,1)" stroke="rgb(249,0,1)" stroke-width="1" opacity="1" d="M 551.5 368 L 549.5 371 L 551.5 368 Z " /><path fill="rgb(249,0,1)" stroke="rgb(249,0,1)" stroke-width="1" opacity="1" d="M 556.5 368 L 557 370.5 L 556 370.5 L 556.5 368 Z " /><path fill="rgb(249,0,1)" stroke="rgb(249,0,1)" stroke-width="1" opacity="1" d="M 350.5 369 L 356 369.5 L 350.5 370 L 350.5 369 Z " /><path fill="rgb(249,0,1)" stroke="rgb(249,0,1)" stroke-width="1" opacity="1" d="M 373.5 369 L 379 369.5 L 373.5 370 L 373.5 369 Z " /><path fill="rgb(249,0,1)" stroke="rgb(249,0,1)" stroke-width="1" opacity="1" d="M 475.5 369 L 478 369.5 L 475.5 370 L 475.5 369 Z " /><path fill="rgb(249,0,1)" stroke="rgb(249,0,1)" stroke-width="1" opacity="1" d="M 485.5 369 L 488 369.5 L 485.5 370 L 485.5 369 Z " /><path fill="rgb(249,0,1)" stroke="rgb(249,0,1)" stroke-width="1" opacity="1" d="M 628.5 369 L 631 369.5 L 628.5 370 L 628.5 369 Z " /><path fill="rgb(249,0,1)" stroke="rgb(249,0,1)" stroke-width="1" opacity="1" d="M 671.5 369 L 678 369.5 L 671.5 370 L 671.5 369 Z " /><path fill="rgb(249,0,1)" stroke="rgb(249,0,1)" stroke-width="1" opacity="1" d="M 694.5 369 L 702 369.5 L 694.5 370 L 694.5 369 Z " /><path fill="rgb(249,0,1)" stroke="rgb(249,0,1)" stroke-width="1" opacity="1" d="M 797.5 369 L 800 369.5 L 797.5 370 L 797.5 369 Z " /><path fill="rgb(249,0,1)" stroke="rgb(249,0,1)" stroke-width="1" opacity="1" d="M 807.5 369 L 811 369.5 L 807.5 370 L 807.5 369 Z " /><path fill="rgb(249,0,1)" stroke="rgb(249,0,1)" stroke-width="1" opacity="1" d="M 874.5 369 L 882 369.5 L 874.5 370 L 874.5 369 Z " /><path fill="rgb(249,0,1)" stroke="rgb(249,0,1)" stroke-width="1" opacity="1" d="M 898.5 369 L 905 369.5 L 898.5 370 L 898.5 369 Z " /><path fill="rgb(249,0,1)" stroke="rgb(249,0,1)" stroke-width="1" opacity="1" d="M 974.5 369 L 982 369.5 L 974.5 370 L 974.5 369 Z " /><path fill="rgb(249,0,1)" stroke="rgb(249,0,1)" stroke-width="1" opacity="1" d="M 998.5 369 L 1006 369.5 L 998.5 370 L 998.5 369 Z " /><path fill="rgb(249,0,1)" stroke="rgb(249,0,1)" stroke-width="1" opacity="1" d="M 343.5 370 L 346 370.5 L 343.5 371 L 343.5 370 Z " /><path fill="rgb(249,0,1)" stroke="rgb(249,0,1)" stroke-width="1" opacity="1" d="M 384.5 370 L 387 370.5 L 384.5 371 L 384.5 370 Z " /><path fill="rgb(249,0,1)" stroke="rgb(249,0,1)" stroke-width="1" opacity="1" d="M 425.5 370 L 459.5 370 Q 460.8 370.3 460 376.5 L 460.5 378 L 459 378 L 459 371.5 L 458.5 371 L 425.5 371 L 425.5 370 Z " /><path fill="rgb(249,0,1)" stroke="rgb(249,0,1)" stroke-width="1" opacity="1" d="M 664.5 370 L 667 370.5 L 664.5 371 L 664.5 370 Z " /><path fill="rgb(249,0,1)" stroke="rgb(249,0,1)" stroke-width="1" opacity="1" d="M 705.5 370 L 708 370.5 L 705.5 371 L 705.5 370 Z " /><path fill="rgb(249,0,1)" stroke="rgb(249,0,1)" stroke-width="1" opacity="1" d="M 747.5 370 L 781 370.5 L 747.5 371 L 747.5 370 Z " /><path fill="rgb(249,0,1)" stroke="rgb(249,0,1)" stroke-width="1" opacity="1" d="M 868.5 370 L 871 370.5 L 868.5 371 L 868.5 370 Z " /><path fill="rgb(249,0,1)" stroke="rgb(249,0,1)" stroke-width="1" opacity="1" d="M 908.5 370 L 911 370.5 L 908.5 371 L 908.5 370 Z " /><path fill="rgb(249,0,1)" stroke="rgb(249,0,1)" stroke-width="1" opacity="1" d="M 967.5 370 L 970 370.5 L 967.5 371 L 967.5 370 Z " /><path fill="rgb(249,0,1)" stroke="rgb(249,0,1)" stroke-width="1" opacity="1" d="M 1009.5 370 L 1012 370.5 L 1009.5 371 L 1009.5 370 Z " /><path fill="rgb(249,0,1)" stroke="rgb(249,0,1)" stroke-width="1" opacity="1" d="M 497.5 373 L 500.5 377 L 497.5 373 Z " /><path fill="rgb(249,0,1)" stroke="rgb(249,0,1)" stroke-width="1" opacity="1" d="M 819.5 373 L 822.5 377 L 819.5 373 Z " /><path fill="rgb(249,0,1)" stroke="rgb(249,0,1)" stroke-width="1" opacity="1" d="M 919.5 373 L 920.5 375 L 919.5 373 Z " /><path fill="rgb(249,0,1)" stroke="rgb(249,0,1)" stroke-width="1" opacity="1" d="M 527.5 374 L 531 374.5 L 527.5 375 L 527.5 374 Z " /><path fill="rgb(249,0,1)" stroke="rgb(249,0,1)" stroke-width="1" opacity="1" d="M 558.5 374 L 560.5 377 L 558.5 374 Z " /><path fill="rgb(249,0,1)" stroke="rgb(249,0,1)" stroke-width="1" opacity="1" d="M 786.5 374 L 785.5 376 L 786.5 374 Z " /><path fill="rgb(249,0,1)" stroke="rgb(249,0,1)" stroke-width="1" opacity="1" d="M 856.5 375 L 853.5 379 L 856.5 375 Z " /><path fill="rgb(249,0,1)" stroke="rgb(249,0,1)" stroke-width="1" opacity="1" d="M 922.5 375 L 925.5 379 L 922.5 375 Z " /><path fill="rgb(249,0,1)" stroke="rgb(249,0,1)" stroke-width="1" opacity="1" d="M 578.5 376 L 581 376.5 L 578.5 377 L 578.5 376 Z " /><path fill="rgb(249,0,1)" stroke="rgb(249,0,1)" stroke-width="1" opacity="1" d="M 574.5 377 L 577 377.5 L 574.5 378 L 574.5 377 Z " /><path fill="rgb(249,0,1)" stroke="rgb(249,0,1)" stroke-width="1" opacity="1" d="M 564.5 378 L 572 378.5 L 564.5 379 L 564.5 378 Z " /><path fill="rgb(249,0,1)" stroke="rgb(249,0,1)" stroke-width="1" opacity="1" d="M 927.5 383 L 928.5 385 L 927.5 383 Z " /><path fill="rgb(249,0,1)" stroke="rgb(249,0,1)" stroke-width="1" opacity="1" d="M 631.5 384 L 632 388.5 L 631 388.5 L 631.5 384 Z " /><path fill="rgb(249,0,1)" stroke="rgb(249,0,1)" stroke-width="1" opacity="1" d="M 505.5 388 L 506 391.5 L 505 391.5 L 505.5 388 Z " /><path fill="rgb(249,0,1)" stroke="rgb(249,0,1)" stroke-width="1" opacity="1" d="M 363.5 393 L 367 393.5 L 363.5 394 L 363.5 393 Z " /><path fill="rgb(249,0,1)" stroke="rgb(249,0,1)" stroke-width="1" opacity="1" d="M 684.5 393 L 688 393.5 L 684.5 394 L 684.5 393 Z " /><path fill="rgb(249,0,1)" stroke="rgb(249,0,1)" stroke-width="1" opacity="1" d="M 887.5 393 L 892 393.5 L 887.5 394 L 887.5 393 Z " /><path fill="rgb(249,0,1)" stroke="rgb(249,0,1)" stroke-width="1" opacity="1" d="M 930.5 393 L 931 506.5 L 930 506.5 L 930.5 393 Z " /><path fill="rgb(249,0,1)" stroke="rgb(249,0,1)" stroke-width="1" opacity="1" d="M 368.5 394 L 369.5 396 L 368.5 394 Z " /><path fill="rgb(249,0,1)" stroke="rgb(249,0,1)" stroke-width="1" opacity="1" d="M 682.5 394 L 681.5 396 L 682.5 394 Z " /><path fill="rgb(249,0,1)" stroke="rgb(249,0,1)" stroke-width="1" opacity="1" d="M 689.5 394 L 690.5 396 L 689.5 394 Z " /><path fill="rgb(249,0,1)" stroke="rgb(249,0,1)" stroke-width="1" opacity="1" d="M 632.5 395 L 633 398.5 L 632 398.5 L 632.5 395 Z " /><path fill="rgb(249,0,1)" stroke="rgb(249,0,1)" stroke-width="1" opacity="1" d="M 462.5 396 L 461.5 398 L 462.5 396 Z " /><path fill="rgb(249,0,1)" stroke="rgb(249,0,1)" stroke-width="1" opacity="1" d="M 469.5 396 L 470.5 398 L 469.5 396 Z " /><path fill="rgb(249,0,1)" stroke="rgb(249,0,1)" stroke-width="1" opacity="1" d="M 506.5 396 L 507 401.5 L 506 401.5 L 506.5 396 Z " /><path fill="rgb(249,0,1)" stroke="rgb(249,0,1)" stroke-width="1" opacity="1" d="M 1029.5 396 L 1030 398.5 L 1029 398.5 L 1029.5 396 Z " /><path fill="rgb(249,0,1)" stroke="rgb(249,0,1)" stroke-width="1" opacity="1" d="M 323.5 398 L 324 524.5 L 323 524.5 L 323.5 398 Z " /><path fill="rgb(249,0,1)" stroke="rgb(249,0,1)" stroke-width="1" opacity="1" d="M 848.5 398 L 849 524.5 L 848 524.5 L 848.5 398 Z " /><path fill="rgb(249,0,1)" stroke="rgb(249,0,1)" stroke-width="1" opacity="1" d="M 679.5 400 L 680 406.5 L 679 406.5 L 679.5 400 Z " /><path fill="rgb(249,0,1)" stroke="rgb(249,0,1)" stroke-width="1" opacity="1" d="M 794.5 400 L 795 406.5 L 794 406.5 L 794.5 400 Z " /><path fill="rgb(249,0,1)" stroke="rgb(249,0,1)" stroke-width="1" opacity="1" d="M 459.5 403 L 460 519.5 L 459 519.5 L 459.5 403 Z " /><path fill="rgb(249,0,1)" stroke="rgb(249,0,1)" stroke-width="1" opacity="1" d="M 472.5 403 L 473 519.5 L 472 519.5 L 472.5 403 Z " /><path fill="rgb(249,0,1)" stroke="rgb(249,0,1)" stroke-width="1" opacity="1" d="M 727.5 403 L 728 552.5 L 727 552.5 L 727.5 403 Z " /><path fill="rgb(249,0,1)" stroke="rgb(249,0,1)" stroke-width="1" opacity="1" d="M 994.5 404 L 995 430.5 L 994 430.5 L 994.5 404 Z " /><path fill="rgb(249,0,1)" stroke="rgb(249,0,1)" stroke-width="1" opacity="1" d="M 371.5 407 L 372 519.5 L 371 519.5 L 371.5 407 Z " /><path fill="rgb(249,0,1)" stroke="rgb(249,0,1)" stroke-width="1" opacity="1" d="M 679.5 408 L 680 423.5 L 679 423.5 L 679.5 408 Z " /><path fill="rgb(249,0,1)" stroke="rgb(249,0,1)" stroke-width="1" opacity="1" d="M 794.5 408 L 795 552.5 L 794 552.5 L 794.5 408 Z " /><path fill="rgb(249,0,1)" stroke="rgb(249,0,1)" stroke-width="1" opacity="1" d="M 252.5 410 L 254.5 413 L 252.5 410 Z " /><path fill="rgb(249,0,1)" stroke="rgb(249,0,1)" stroke-width="1" opacity="1" d="M 591.5 413 L 589.5 416 L 591.5 413 Z " /><path fill="rgb(249,0,1)" stroke="rgb(249,0,1)" stroke-width="1" opacity="1" d="M 571.5 415 L 574 415.5 L 571.5 416 L 571.5 415 Z " /><path fill="rgb(249,0,1)" stroke="rgb(249,0,1)" stroke-width="1" opacity="1" d="M 562.5 418 L 560.5 421 L 562.5 418 Z " /><path fill="rgb(249,0,1)" stroke="rgb(249,0,1)" stroke-width="1" opacity="1" d="M 559.5 422 Q 559.3 426.3 562 427.5 L 559 425.5 L 559.5 422 Z " /><path fill="rgb(249,0,1)" stroke="rgb(249,0,1)" stroke-width="1" opacity="1" d="M 280.5 426 L 281.5 428 L 280.5 426 Z " /><path fill="rgb(249,0,1)" stroke="rgb(249,0,1)" stroke-width="1" opacity="1" d="M 573.5 433 L 576.5 437 L 573.5 433 Z " /><path fill="rgb(249,0,1)" stroke="rgb(249,0,1)" stroke-width="1" opacity="1" d="M 558.5 436 L 559 444.5 L 558 444.5 L 558.5 436 Z " /><path fill="rgb(249,0,1)" stroke="rgb(249,0,1)" stroke-width="1" opacity="1" d="M 988.5 440 L 991 441.5 L 989.5 442 L 988.5 440 Z " /><path fill="rgb(249,0,1)" stroke="rgb(249,0,1)" stroke-width="1" opacity="1" d="M 683.5 442 L 682.5 444 L 681 443.5 L 683.5 442 Z " /><path fill="rgb(249,0,1)" stroke="rgb(249,0,1)" stroke-width="1" opacity="1" d="M 245.5 447 L 246.5 449 L 245.5 447 Z " /><path fill="rgb(249,0,1)" stroke="rgb(249,0,1)" stroke-width="1" opacity="1" d="M 256.5 453 L 257.5 455 L 256.5 453 Z " /><path fill="rgb(249,0,1)" stroke="rgb(249,0,1)" stroke-width="1" opacity="1" d="M 259.5 455 L 262.5 459 L 259.5 455 Z " /><path fill="rgb(249,0,1)" stroke="rgb(249,0,1)" stroke-width="1" opacity="1" d="M 652.5 460 L 650.5 463 L 652.5 460 Z " /><path fill="rgb(249,0,1)" stroke="rgb(249,0,1)" stroke-width="1" opacity="1" d="M 250.5 461 L 251 520.5 L 250 520.5 L 250.5 461 Z " /><path fill="rgb(249,0,1)" stroke="rgb(249,0,1)" stroke-width="1" opacity="1" d="M 264.5 465 L 265 516.5 L 264 516.5 L 264.5 465 Z " /><path fill="rgb(249,0,1)" stroke="rgb(249,0,1)" stroke-width="1" opacity="1" d="M 684.5 470 L 685.5 472 L 684.5 470 Z " /><path fill="rgb(249,0,1)" stroke="rgb(249,0,1)" stroke-width="1" opacity="1" d="M 990.5 476 L 992.5 479 L 990.5 476 Z " /><path fill="rgb(249,0,1)" stroke="rgb(249,0,1)" stroke-width="1" opacity="1" d="M 679.5 480 L 680 519.5 L 679 519.5 L 679.5 480 Z " /><path fill="rgb(249,0,1)" stroke="rgb(249,0,1)" stroke-width="1" opacity="1" d="M 994.5 484 L 995 522.5 L 994 522.5 L 994.5 484 Z " /><path fill="rgb(249,0,1)" stroke="rgb(249,0,1)" stroke-width="1" opacity="1" d="M 554.5 491 L 555 493.5 L 554 493.5 L 554.5 491 Z " /><path fill="rgb(249,0,1)" stroke="rgb(249,0,1)" stroke-width="1" opacity="1" d="M 930.5 508 L 931 530.5 L 930 530.5 L 930.5 508 Z " /><path fill="rgb(249,0,1)" stroke="rgb(249,0,1)" stroke-width="1" opacity="1" d="M 554.5 518 L 555 523.5 L 554 523.5 L 554.5 518 Z " /><path fill="rgb(249,0,1)" stroke="rgb(249,0,1)" stroke-width="1" opacity="1" d="M 209.5 520 L 210 522.5 L 209 522.5 L 209.5 520 Z " /><path fill="rgb(249,0,1)" stroke="rgb(249,0,1)" stroke-width="1" opacity="1" d="M 506.5 520 L 507 526.5 L 506 526.5 L 506.5 520 Z " /><path fill="rgb(249,0,1)" stroke="rgb(249,0,1)" stroke-width="1" opacity="1" d="M 252.5 523 L 253.5 525 L 252.5 523 Z " /><path fill="rgb(249,0,1)" stroke="rgb(249,0,1)" stroke-width="1" opacity="1" d="M 262.5 523 L 261.5 525 L 262.5 523 Z " /><path fill="rgb(249,0,1)" stroke="rgb(249,0,1)" stroke-width="1" opacity="1" d="M 470.5 525 L 469.5 527 L 470.5 525 Z " /><path fill="rgb(249,0,1)" stroke="rgb(249,0,1)" stroke-width="1" opacity="1" d="M 680.5 525 L 683 528.5 L 680 526.5 L 680.5 525 Z " /><path fill="rgb(249,0,1)" stroke="rgb(249,0,1)" stroke-width="1" opacity="1" d="M 369.5 527 L 368.5 529 L 369.5 527 Z " /><path fill="rgb(249,0,1)" stroke="rgb(249,0,1)" stroke-width="1" opacity="1" d="M 364.5 529 L 367 529.5 L 364.5 530 L 364.5 529 Z " /><path fill="rgb(249,0,1)" stroke="rgb(249,0,1)" stroke-width="1" opacity="1" d="M 685.5 529 L 688 529.5 L 685.5 530 L 685.5 529 Z " /><path fill="rgb(249,0,1)" stroke="rgb(249,0,1)" stroke-width="1" opacity="1" d="M 888.5 529 L 892 529.5 L 888.5 530 L 888.5 529 Z " /><path fill="rgb(249,0,1)" stroke="rgb(249,0,1)" stroke-width="1" opacity="1" d="M 987.5 529 L 990 529.5 L 987.5 530 L 987.5 529 Z " /><path fill="rgb(249,0,1)" stroke="rgb(249,0,1)" stroke-width="1" opacity="1" d="M 505.5 531 L 506 533.5 L 505 533.5 L 505.5 531 Z " /><path fill="rgb(249,0,1)" stroke="rgb(249,0,1)" stroke-width="1" opacity="1" d="M 501.5 544 L 500.5 546 L 501.5 544 Z " /><path fill="rgb(249,0,1)" stroke="rgb(249,0,1)" stroke-width="1" opacity="1" d="M 329.5 545 L 331.5 548 L 329.5 545 Z " /><path fill="rgb(249,0,1)" stroke="rgb(249,0,1)" stroke-width="1" opacity="1" d="M 459 545 L 461 545.5 L 460 546.5 L 459.5 596 L 459 545 Z " /><path fill="rgb(249,0,1)" stroke="rgb(249,0,1)" stroke-width="1" opacity="1" d="M 854.5 545 L 856.5 548 L 854.5 545 Z " /><path fill="rgb(249,0,1)" stroke="rgb(249,0,1)" stroke-width="1" opacity="1" d="M 499.5 547 L 498.5 549 L 499.5 547 Z " /><path fill="rgb(249,0,1)" stroke="rgb(249,0,1)" stroke-width="1" opacity="1" d="M 546.5 553 L 550 553.5 L 546.5 554 L 546.5 553 Z " /><path fill="rgb(249,0,1)" stroke="rgb(249,0,1)" stroke-width="1" opacity="1" d="M 902.5 553 L 905 553.5 L 902.5 554 L 902.5 553 Z " /><path fill="rgb(249,0,1)" stroke="rgb(249,0,1)" stroke-width="1" opacity="1" d="M 247.5 554 L 250 554.5 L 247.5 555 L 247.5 554 Z " /><path fill="rgb(249,0,1)" stroke="rgb(249,0,1)" stroke-width="1" opacity="1" d="M 264.5 554 L 268 554.5 L 264.5 555 L 264.5 554 Z " /><path fill="rgb(192,0,0)" stroke="rgb(192,0,0)" stroke-width="1" opacity="1" d="M 323.5 286 L 334.5 286 L 336 287.5 Q 336.8 291.3 334.5 292 L 333 292.5 L 333 333.5 Q 331.4 336.5 326 335 L 326 292.5 L 323.5 292 L 323.5 291 L 327 292.5 L 327 333.5 L 332 334 L 332 291.5 L 335 291 L 335 287 L 323.5 287 L 323.5 286 Z " /><path fill="rgb(192,0,0)" stroke="rgb(192,0,0)" stroke-width="1" opacity="1" d="M 358.5 286 L 364 286.5 L 357.5 288 L 358.5 286 Z " /><path fill="rgb(192,0,0)" stroke="rgb(192,0,0)" stroke-width="1" opacity="1" d="M 367.5 286 L 373 286.5 L 367 287 L 367 304.5 L 365.5 306 L 364 305.5 L 366 305 L 366 287.5 L 367.5 286 Z " /><path fill="rgb(192,0,0)" stroke="rgb(192,0,0)" stroke-width="1" opacity="1" d="M 396.5 286 L 405.5 286 L 407 287.5 Q 407.8 291.3 405.5 292 L 403 292.5 L 403 305.5 L 402 305.5 L 402 291.5 L 406 291 L 406 287 L 396.5 287 L 396.5 286 Z " /><path fill="rgb(192,0,0)" stroke="rgb(192,0,0)" stroke-width="1" opacity="1" d="M 404.5 305 L 407 306.5 Q 407.8 310.3 405.5 311 L 403 311.5 L 403 329 L 407 330.5 Q 407.8 334.3 405.5 335 L 396.5 335 L 396 333.5 L 397.5 334 L 406 334 L 406 330 L 402 329.5 L 402 310 Q 408 312 406 306 L 404.5 305 Z " /><path fill="rgb(192,0,0)" stroke="rgb(192,0,0)" stroke-width="1" opacity="1" d="M 364.5 310 L 367 310.5 L 367 334 L 372.5 334 L 372.5 335 Q 367.3 336.3 366 333.5 L 366 311.5 L 364.5 311 L 364.5 310 Z " /><path fill="rgb(192,0,0)" stroke="rgb(192,0,0)" stroke-width="1" opacity="1" d="M 244.5 326 L 270 326.5 L 244.5 327 L 244.5 326 Z " /><path fill="rgb(192,0,0)" stroke="rgb(192,0,0)" stroke-width="1" opacity="1" d="M 234.5 327 L 238 327.5 L 234.5 328 L 234.5 327 Z " /><path fill="rgb(192,0,0)" stroke="rgb(192,0,0)" stroke-width="1" opacity="1" d="M 276.5 327 L 280 327.5 L 276.5 328 L 276.5 327 Z " /><path fill="rgb(192,0,0)" stroke="rgb(192,0,0)" stroke-width="1" opacity="1" d="M 293.5 331 L 294.5 333 L 293.5 331 Z " /><path fill="rgb(192,0,0)" stroke="rgb(192,0,0)" stroke-width="1" opacity="1" d="M 219.5 332 L 214.5 338 L 219.5 332 Z " /><path fill="rgb(192,0,0)" stroke="rgb(192,0,0)" stroke-width="1" opacity="1" d="M 296.5 333 L 299.5 337 L 296.5 333 Z " /><path fill="rgb(192,0,0)" stroke="rgb(192,0,0)" stroke-width="1" opacity="1" d="M 358.5 334 L 364 334.5 L 358.5 335 L 358.5 334 Z " /><path fill="rgb(192,0,0)" stroke="rgb(192,0,0)" stroke-width="1" opacity="1" d="M 300.5 338 L 302 340.5 L 301 340.5 L 300.5 338 Z " /><path fill="rgb(192,0,0)" stroke="rgb(192,0,0)" stroke-width="1" opacity="1" d="M 210.5 347 L 211 349.5 L 210 349.5 L 210.5 347 Z " /><path fill="rgb(192,0,0)" stroke="rgb(192,0,0)" stroke-width="1" opacity="1" d="M 304.5 349 L 305 352.5 L 304 352.5 L 304.5 349 Z " /><path fill="rgb(192,0,0)" stroke="rgb(192,0,0)" stroke-width="1" opacity="1" d="M 209.5 352 L 210 357.5 L 209 357.5 L 209.5 352 Z " /><path fill="rgb(192,0,0)" stroke="rgb(192,0,0)" stroke-width="1" opacity="1" d="M 254.5 356 L 257 356.5 L 254.5 357 L 254.5 356 Z " /><path fill="rgb(192,0,0)" stroke="rgb(192,0,0)" stroke-width="1" opacity="1" d="M 261.5 357 L 262.5 359 L 261.5 357 Z " /><path fill="rgb(192,0,0)" stroke="rgb(192,0,0)" stroke-width="1" opacity="1" d="M 252.5 358 L 252 359.5 L 251.5 361 L 251 359.5 L 252.5 358 Z " /><path fill="rgb(192,0,0)" stroke="rgb(192,0,0)" stroke-width="1" opacity="1" d="M 305.5 358 L 306 406 L 264 405.5 L 305 405 L 305.5 358 Z " /><path fill="rgb(192,0,0)" stroke="rgb(192,0,0)" stroke-width="1" opacity="1" d="M 554.5 362 L 555.5 364 L 554.5 362 Z " /><path fill="rgb(192,0,0)" stroke="rgb(192,0,0)" stroke-width="1" opacity="1" d="M 556.5 365 L 557 367.5 L 556 367.5 L 556.5 365 Z " /><path fill="rgb(192,0,0)" stroke="rgb(192,0,0)" stroke-width="1" opacity="1" d="M 616.5 365 L 620 365.5 L 616.5 366 L 616.5 365 Z " /><path fill="rgb(192,0,0)" stroke="rgb(192,0,0)" stroke-width="1" opacity="1" d="M 622.5 365 L 626 365.5 L 622.5 366 L 622.5 365 Z " /><path fill="rgb(192,0,0)" stroke="rgb(192,0,0)" stroke-width="1" opacity="1" d="M 610.5 366 L 614 366.5 L 610.5 367 L 610.5 366 Z " /><path fill="rgb(192,0,0)" stroke="rgb(192,0,0)" stroke-width="1" opacity="1" d="M 627.5 366 L 629 368.5 L 628 368.5 L 627.5 366 Z " /><path fill="rgb(192,0,0)" stroke="rgb(192,0,0)" stroke-width="1" opacity="1" d="M 551.5 367 L 548.5 371 L 551.5 367 Z " /><path fill="rgb(192,0,0)" stroke="rgb(192,0,0)" stroke-width="1" opacity="1" d="M 606.5 367 L 609 367.5 L 606.5 368 L 606.5 367 Z " /><path fill="rgb(192,0,0)" stroke="rgb(192,0,0)" stroke-width="1" opacity="1" d="M 353.5 368 L 376 368.5 L 353.5 369 L 353.5 368 Z " /><path fill="rgb(192,0,0)" stroke="rgb(192,0,0)" stroke-width="1" opacity="1" d="M 477.5 368 L 486 368.5 L 477.5 369 L 477.5 368 Z " /><path fill="rgb(192,0,0)" stroke="rgb(192,0,0)" stroke-width="1" opacity="1" d="M 674.5 368 L 698 368.5 L 674.5 369 L 674.5 368 Z " /><path fill="rgb(192,0,0)" stroke="rgb(192,0,0)" stroke-width="1" opacity="1" d="M 799.5 368 L 809 368.5 L 799.5 369 L 799.5 368 Z " /><path fill="rgb(192,0,0)" stroke="rgb(192,0,0)" stroke-width="1" opacity="1" d="M 878.5 368 L 901 368.5 L 878.5 369 L 878.5 368 Z " /><path fill="rgb(192,0,0)" stroke="rgb(192,0,0)" stroke-width="1" opacity="1" d="M 978.5 368 L 1002 368.5 L 978.5 369 L 978.5 368 Z " /><path fill="rgb(192,0,0)" stroke="rgb(192,0,0)" stroke-width="1" opacity="1" d="M 345.5 369 L 350 369.5 L 345.5 370 L 345.5 369 Z " /><path fill="rgb(192,0,0)" stroke="rgb(192,0,0)" stroke-width="1" opacity="1" d="M 379.5 369 L 385 369.5 L 379.5 370 L 379.5 369 Z " /><path fill="rgb(192,0,0)" stroke="rgb(192,0,0)" stroke-width="1" opacity="1" d="M 488.5 369 L 491 369.5 L 488.5 370 L 488.5 369 Z " /><path fill="rgb(192,0,0)" stroke="rgb(192,0,0)" stroke-width="1" opacity="1" d="M 599.5 369 L 602 369.5 L 599.5 370 L 599.5 369 Z " /><path fill="rgb(192,0,0)" stroke="rgb(192,0,0)" stroke-width="1" opacity="1" d="M 631.5 369 L 634 372.5 L 632 373.5 L 633 371.5 L 631.5 369 Z " /><path fill="rgb(192,0,0)" stroke="rgb(192,0,0)" stroke-width="1" opacity="1" d="M 666.5 369 L 671 369.5 L 666.5 370 L 666.5 369 Z " /><path fill="rgb(192,0,0)" stroke="rgb(192,0,0)" stroke-width="1" opacity="1" d="M 702.5 369 L 706 369.5 L 702.5 370 L 702.5 369 Z " /><path fill="rgb(192,0,0)" stroke="rgb(192,0,0)" stroke-width="1" opacity="1" d="M 781.5 369 Q 784.4 370.6 783.5 376 L 785 375.5 L 782 377 L 781.5 369 Z " /><path fill="rgb(192,0,0)" stroke="rgb(192,0,0)" stroke-width="1" opacity="1" d="M 869.5 369 L 874 369.5 L 869.5 370 L 869.5 369 Z " /><path fill="rgb(192,0,0)" stroke="rgb(192,0,0)" stroke-width="1" opacity="1" d="M 905.5 369 L 910 369.5 L 905.5 370 L 905.5 369 Z " /><path fill="rgb(192,0,0)" stroke="rgb(192,0,0)" stroke-width="1" opacity="1" d="M 969.5 369 L 974 369.5 L 969.5 370 L 969.5 369 Z " /><path fill="rgb(192,0,0)" stroke="rgb(192,0,0)" stroke-width="1" opacity="1" d="M 1006.5 369 L 1010 369.5 L 1006.5 370 L 1006.5 369 Z " /><path fill="rgb(192,0,0)" stroke="rgb(192,0,0)" stroke-width="1" opacity="1" d="M 340.5 370 L 343 370.5 L 340.5 371 L 340.5 370 Z " /><path fill="rgb(192,0,0)" stroke="rgb(192,0,0)" stroke-width="1" opacity="1" d="M 424.5 370 L 425 596 L 459.5 596 L 460.5 595 L 459.5 597 L 424.5 597 L 424 596.5 L 424.5 370 Z " /><path fill="rgb(192,0,0)" stroke="rgb(192,0,0)" stroke-width="1" opacity="1" d="M 492.5 370 L 497 372.5 L 495.5 372 Q 491.7 371.8 492.5 370 Z " /><path fill="rgb(192,0,0)" stroke="rgb(192,0,0)" stroke-width="1" opacity="1" d="M 595.5 370 L 598 370.5 L 595.5 371 L 595.5 370 Z " /><path fill="rgb(192,0,0)" stroke="rgb(192,0,0)" stroke-width="1" opacity="1" d="M 746.5 370 L 747 553 L 781.5 553 L 782 552.5 L 782 399.5 L 783 399.5 L 783 552.5 L 781.5 554 L 747.5 554 L 746 552.5 L 746.5 370 Z " /><path fill="rgb(192,0,0)" stroke="rgb(192,0,0)" stroke-width="1" opacity="1" d="M 792.5 370 L 794 370.5 L 789.5 373 L 790.5 371 L 792.5 370 Z " /><path fill="rgb(192,0,0)" stroke="rgb(192,0,0)" stroke-width="1" opacity="1" d="M 865.5 370 L 868 370.5 L 865.5 371 L 865.5 370 Z " /><path fill="rgb(192,0,0)" stroke="rgb(192,0,0)" stroke-width="1" opacity="1" d="M 911.5 370 L 914 370.5 L 911.5 371 L 911.5 370 Z " /><path fill="rgb(192,0,0)" stroke="rgb(192,0,0)" stroke-width="1" opacity="1" d="M 817.5 371 L 818.5 373 L 817.5 371 Z " /><path fill="rgb(192,0,0)" stroke="rgb(192,0,0)" stroke-width="1" opacity="1" d="M 466.5 372 L 465.5 374 L 466.5 372 Z " /><path fill="rgb(192,0,0)" stroke="rgb(192,0,0)" stroke-width="1" opacity="1" d="M 656.5 372 L 655.5 374 L 649.5 379 L 654.5 373 L 656.5 372 Z " /><path fill="rgb(192,0,0)" stroke="rgb(192,0,0)" stroke-width="1" opacity="1" d="M 714.5 372 L 717 373.5 L 715.5 373 L 714.5 372 Z " /><path fill="rgb(192,0,0)" stroke="rgb(192,0,0)" stroke-width="1" opacity="1" d="M 959.5 372 L 961 372.5 L 958.5 374 L 959.5 372 Z " /><path fill="rgb(192,0,0)" stroke="rgb(192,0,0)" stroke-width="1" opacity="1" d="M 333.5 373 L 332.5 375 L 333.5 373 Z " /><path fill="rgb(192,0,0)" stroke="rgb(192,0,0)" stroke-width="1" opacity="1" d="M 820.5 373 L 822.5 376 L 820.5 373 Z " /><path fill="rgb(192,0,0)" stroke="rgb(192,0,0)" stroke-width="1" opacity="1" d="M 858.5 373 L 857.5 375 L 858.5 373 Z " /><path fill="rgb(192,0,0)" stroke="rgb(192,0,0)" stroke-width="1" opacity="1" d="M 920.5 373 L 921.5 375 L 920.5 373 Z " /><path fill="rgb(192,0,0)" stroke="rgb(192,0,0)" stroke-width="1" opacity="1" d="M 1020.5 373 L 1025.5 379 L 1020.5 373 Z " /><path fill="rgb(192,0,0)" stroke="rgb(192,0,0)" stroke-width="1" opacity="1" d="M 397.5 374 L 400.5 378 L 397.5 374 Z " /><path fill="rgb(192,0,0)" stroke="rgb(192,0,0)" stroke-width="1" opacity="1" d="M 463.5 374 L 461.5 377 L 460 376.5 L 463.5 374 Z " /><path fill="rgb(192,0,0)" stroke="rgb(192,0,0)" stroke-width="1" opacity="1" d="M 718.5 374 L 722.5 379 L 718.5 374 Z " /><path fill="rgb(192,0,0)" stroke="rgb(192,0,0)" stroke-width="1" opacity="1" d="M 956.5 374 L 952 379.5 L 950.5 383 L 950 381.5 L 956.5 374 Z " /><path fill="rgb(192,0,0)" stroke="rgb(192,0,0)" stroke-width="1" opacity="1" d="M 534.5 375 L 537 375.5 L 534.5 376 L 534.5 375 Z " /><path fill="rgb(192,0,0)" stroke="rgb(192,0,0)" stroke-width="1" opacity="1" d="M 560.5 375 L 561.5 377 L 560.5 375 Z " /><path fill="rgb(192,0,0)" stroke="rgb(192,0,0)" stroke-width="1" opacity="1" d="M 631.5 375 L 632 383.5 L 631 383.5 L 631.5 375 Z " /><path fill="rgb(192,0,0)" stroke="rgb(192,0,0)" stroke-width="1" opacity="1" d="M 855.5 375 L 853.5 378 L 855.5 375 Z " /><path fill="rgb(192,0,0)" stroke="rgb(192,0,0)" stroke-width="1" opacity="1" d="M 923.5 375 L 924.5 377 L 923.5 375 Z " /><path fill="rgb(192,0,0)" stroke="rgb(192,0,0)" stroke-width="1" opacity="1" d="M 501.5 377 L 504 381.5 L 503 381.5 L 501.5 377 Z " /><path fill="rgb(192,0,0)" stroke="rgb(192,0,0)" stroke-width="1" opacity="1" d="M 571.5 377 L 574 377.5 L 571.5 378 L 571.5 377 Z " /><path fill="rgb(192,0,0)" stroke="rgb(192,0,0)" stroke-width="1" opacity="1" d="M 823.5 377 L 824.5 379 L 823.5 377 Z " /><path fill="rgb(192,0,0)" stroke="rgb(192,0,0)" stroke-width="1" opacity="1" d="M 328.5 378 L 327.5 380 L 328.5 378 Z " /><path fill="rgb(192,0,0)" stroke="rgb(192,0,0)" stroke-width="1" opacity="1" d="M 401.5 379 L 402.5 381 L 401.5 379 Z " /><path fill="rgb(192,0,0)" stroke="rgb(192,0,0)" stroke-width="1" opacity="1" d="M 852.5 379 L 852 380.5 L 851.5 382 L 851 380.5 L 852.5 379 Z " /><path fill="rgb(192,0,0)" stroke="rgb(192,0,0)" stroke-width="1" opacity="1" d="M 648.5 380 L 648 381.5 L 647.5 383 L 647 381.5 L 648.5 380 Z " /><path fill="rgb(192,0,0)" stroke="rgb(192,0,0)" stroke-width="1" opacity="1" d="M 723.5 380 L 725 382.5 L 724 382.5 L 723.5 380 Z " /><path fill="rgb(192,0,0)" stroke="rgb(192,0,0)" stroke-width="1" opacity="1" d="M 825.5 380 L 827 383.5 L 826 383.5 L 825.5 380 Z " /><path fill="rgb(192,0,0)" stroke="rgb(192,0,0)" stroke-width="1" opacity="1" d="M 403.5 382 L 405 386.5 L 404 386.5 L 403.5 382 Z " /><path fill="rgb(192,0,0)" stroke="rgb(192,0,0)" stroke-width="1" opacity="1" d="M 525.5 382 L 524.5 384 L 525.5 382 Z " /><path fill="rgb(192,0,0)" stroke="rgb(192,0,0)" stroke-width="1" opacity="1" d="M 850.5 383 L 851 384.5 L 849.5 389 L 849 385.5 L 850.5 383 Z " /><path fill="rgb(192,0,0)" stroke="rgb(192,0,0)" stroke-width="1" opacity="1" d="M 827.5 385 L 828 387.5 L 827 387.5 L 827.5 385 Z " /><path fill="rgb(192,0,0)" stroke="rgb(192,0,0)" stroke-width="1" opacity="1" d="M 1028.5 385 L 1029 387.5 L 1028 387.5 L 1028.5 385 Z " /><path fill="rgb(192,0,0)" stroke="rgb(192,0,0)" stroke-width="1" opacity="1" d="M 324.5 386 L 325 388.5 L 324 388.5 L 324.5 386 Z " /><path fill="rgb(192,0,0)" stroke="rgb(192,0,0)" stroke-width="1" opacity="1" d="M 632.5 387 L 633 394.5 L 632 394.5 L 632.5 387 Z " /><path fill="rgb(192,0,0)" stroke="rgb(192,0,0)" stroke-width="1" opacity="1" d="M 645.5 387 L 646 390.5 L 645 390.5 L 645.5 387 Z " /><path fill="rgb(192,0,0)" stroke="rgb(192,0,0)" stroke-width="1" opacity="1" d="M 726.5 387 L 727 389.5 L 726 389.5 L 726.5 387 Z " /><path fill="rgb(192,0,0)" stroke="rgb(192,0,0)" stroke-width="1" opacity="1" d="M 405.5 388 L 406 391.5 L 405 391.5 L 405.5 388 Z " /><path fill="rgb(192,0,0)" stroke="rgb(192,0,0)" stroke-width="1" opacity="1" d="M 522.5 388 L 520.5 391 L 522.5 388 Z " /><path fill="rgb(192,0,0)" stroke="rgb(192,0,0)" stroke-width="1" opacity="1" d="M 828.5 389 L 829 393.5 L 828 393.5 L 828.5 389 Z " /><path fill="rgb(192,0,0)" stroke="rgb(192,0,0)" stroke-width="1" opacity="1" d="M 930.5 389 L 931 392.5 L 930 392.5 L 930.5 389 Z " /><path fill="rgb(192,0,0)" stroke="rgb(192,0,0)" stroke-width="1" opacity="1" d="M 506.5 390 L 507 395.5 L 506 395.5 L 506.5 390 Z " /><path fill="rgb(192,0,0)" stroke="rgb(192,0,0)" stroke-width="1" opacity="1" d="M 848.5 390 L 849 397.5 L 848 397.5 L 848.5 390 Z " /><path fill="rgb(192,0,0)" stroke="rgb(192,0,0)" stroke-width="1" opacity="1" d="M 1029.5 390 L 1030 395.5 L 1029 395.5 L 1029.5 390 Z " /><path fill="rgb(192,0,0)" stroke="rgb(192,0,0)" stroke-width="1" opacity="1" d="M 518.5 391 L 520 393.5 L 518 392.5 L 518.5 391 Z " /><path fill="rgb(192,0,0)" stroke="rgb(192,0,0)" stroke-width="1" opacity="1" d="M 947.5 391 L 948 395.5 L 947 395.5 L 947.5 391 Z " /><path fill="rgb(192,0,0)" stroke="rgb(192,0,0)" stroke-width="1" opacity="1" d="M 323.5 392 L 324 397.5 L 323 397.5 L 323.5 392 Z " /><path fill="rgb(192,0,0)" stroke="rgb(192,0,0)" stroke-width="1" opacity="1" d="M 727.5 393 L 728 402.5 L 727 402.5 L 727.5 393 Z " /><path fill="rgb(192,0,0)" stroke="rgb(192,0,0)" stroke-width="1" opacity="1" d="M 987.5 393 L 990 393.5 L 987.5 394 L 987.5 393 Z " /><path fill="rgb(192,0,0)" stroke="rgb(192,0,0)" stroke-width="1" opacity="1" d="M 361.5 394 L 363 394.5 L 360.5 396 L 361.5 394 Z " /><path fill="rgb(192,0,0)" stroke="rgb(192,0,0)" stroke-width="1" opacity="1" d="M 366.5 394 L 370 396.5 L 367.5 395 L 366.5 394 Z " /><path fill="rgb(192,0,0)" stroke="rgb(192,0,0)" stroke-width="1" opacity="1" d="M 406.5 394 L 407 527.5 L 406 527.5 L 406.5 394 Z " /><path fill="rgb(192,0,0)" stroke="rgb(192,0,0)" stroke-width="1" opacity="1" d="M 521.5 394 L 522 399.5 L 521 399.5 L 521.5 394 Z " /><path fill="rgb(192,0,0)" stroke="rgb(192,0,0)" stroke-width="1" opacity="1" d="M 644.5 394 L 645 430.5 L 646 431.5 L 644 430.5 L 644.5 394 Z " /><path fill="rgb(192,0,0)" stroke="rgb(192,0,0)" stroke-width="1" opacity="1" d="M 886.5 394 L 888 394.5 L 885 396.5 L 884 398.5 L 883.5 524 L 883 398.5 L 886.5 394 Z " /><path fill="rgb(192,0,0)" stroke="rgb(192,0,0)" stroke-width="1" opacity="1" d="M 891.5 394 L 895 396.5 L 894.5 398 L 892.5 395 L 891.5 394 Z " /><path fill="rgb(192,0,0)" stroke="rgb(192,0,0)" stroke-width="1" opacity="1" d="M 985.5 394 L 984 396.5 L 983.5 398 L 983 396.5 L 985.5 394 Z " /><path fill="rgb(192,0,0)" stroke="rgb(192,0,0)" stroke-width="1" opacity="1" d="M 991.5 394 L 992.5 396 L 991.5 394 Z " /><path fill="rgb(192,0,0)" stroke="rgb(192,0,0)" stroke-width="1" opacity="1" d="M 786.5 395 L 790 395.5 L 786.5 396 L 786.5 395 Z " /><path fill="rgb(192,0,0)" stroke="rgb(192,0,0)" stroke-width="1" opacity="1" d="M 784.5 396 L 783.5 398 L 784.5 396 Z " /><path fill="rgb(192,0,0)" stroke="rgb(192,0,0)" stroke-width="1" opacity="1" d="M 791.5 396 Q 794.5 396.5 794 400.5 L 793 400.5 L 791.5 396 Z " /><path fill="rgb(192,0,0)" stroke="rgb(192,0,0)" stroke-width="1" opacity="1" d="M 829.5 396 L 830 552.5 L 828.5 554 L 794.5 554 L 794.5 553 L 828.5 553 L 829 552.5 L 829.5 396 Z " /><path fill="rgb(192,0,0)" stroke="rgb(192,0,0)" stroke-width="1" opacity="1" d="M 633.5 397 L 634 406.5 L 632.5 408 L 614.5 408 L 614.5 407 L 633 407 L 633.5 397 Z " /><path fill="rgb(192,0,0)" stroke="rgb(192,0,0)" stroke-width="1" opacity="1" d="M 461.5 398 L 461 399.5 L 460.5 403 L 460 399.5 L 461.5 398 Z " /><path fill="rgb(192,0,0)" stroke="rgb(192,0,0)" stroke-width="1" opacity="1" d="M 470.5 398 Q 473 399 472 403.5 L 471 403.5 L 470.5 398 Z " /><path fill="rgb(192,0,0)" stroke="rgb(192,0,0)" stroke-width="1" opacity="1" d="M 931.5 398 L 932 524.5 L 931 524.5 L 931.5 398 Z " /><path fill="rgb(192,0,0)" stroke="rgb(192,0,0)" stroke-width="1" opacity="1" d="M 370.5 399 L 371 524.5 L 370 524.5 L 370.5 399 Z " /><path fill="rgb(192,0,0)" stroke="rgb(192,0,0)" stroke-width="1" opacity="1" d="M 507.5 399 L 508 522.5 L 507 522.5 L 507.5 399 Z " /><path fill="rgb(192,0,0)" stroke="rgb(192,0,0)" stroke-width="1" opacity="1" d="M 895.5 399 L 896 523.5 L 895 523.5 L 895.5 399 Z " /><path fill="rgb(192,0,0)" stroke="rgb(192,0,0)" stroke-width="1" opacity="1" d="M 358.5 402 L 359 519.5 L 358 519.5 L 358.5 402 Z " /><path fill="rgb(192,0,0)" stroke="rgb(192,0,0)" stroke-width="1" opacity="1" d="M 982.5 402 L 983 428.5 L 982 428.5 L 982.5 402 Z " /><path fill="rgb(192,0,0)" stroke="rgb(192,0,0)" stroke-width="1" opacity="1" d="M 1030.5 407 L 1031 430.5 L 1030 430.5 L 1030.5 407 Z " /><path fill="rgb(192,0,0)" stroke="rgb(192,0,0)" stroke-width="1" opacity="1" d="M 607.5 408 L 612 408.5 L 607.5 409 L 607.5 408 Z " /><path fill="rgb(192,0,0)" stroke="rgb(192,0,0)" stroke-width="1" opacity="1" d="M 252.5 409 L 256.5 414 L 252.5 409 Z " /><path fill="rgb(192,0,0)" stroke="rgb(192,0,0)" stroke-width="1" opacity="1" d="M 603.5 409 L 606 409.5 L 603.5 410 L 603.5 409 Z " /><path fill="rgb(192,0,0)" stroke="rgb(192,0,0)" stroke-width="1" opacity="1" d="M 521.5 410 L 522 430.5 L 523 431.5 L 523 479.5 L 522 479.5 L 522 431.5 L 521 430.5 L 521.5 410 Z " /><path fill="rgb(192,0,0)" stroke="rgb(192,0,0)" stroke-width="1" opacity="1" d="M 209.5 411 L 210 415.5 L 209 415.5 L 209.5 411 Z " /><path fill="rgb(192,0,0)" stroke="rgb(192,0,0)" stroke-width="1" opacity="1" d="M 596.5 411 L 599 411.5 L 596.5 412 L 596.5 411 Z " /><path fill="rgb(192,0,0)" stroke="rgb(192,0,0)" stroke-width="1" opacity="1" d="M 593.5 412 L 595 412.5 L 592.5 414 L 593.5 412 Z " /><path fill="rgb(192,0,0)" stroke="rgb(192,0,0)" stroke-width="1" opacity="1" d="M 262.5 416 L 270 420.5 L 268.5 420 Q 262.9 419.2 262.5 416 Z " /><path fill="rgb(192,0,0)" stroke="rgb(192,0,0)" stroke-width="1" opacity="1" d="M 567.5 416 L 570 416.5 L 567.5 417 L 567.5 416 Z " /><path fill="rgb(192,0,0)" stroke="rgb(192,0,0)" stroke-width="1" opacity="1" d="M 575.5 416 Q 581.6 417.4 584 422.5 L 585 425.5 L 584 425.5 L 578.5 418 Q 574.8 417.7 575.5 416 Z " /><path fill="rgb(192,0,0)" stroke="rgb(192,0,0)" stroke-width="1" opacity="1" d="M 589.5 416 L 589 417.5 L 588.5 422 L 588 417.5 L 589.5 416 Z " /><path fill="rgb(192,0,0)" stroke="rgb(192,0,0)" stroke-width="1" opacity="1" d="M 563.5 418 L 560.5 422 L 563.5 418 Z " /><path fill="rgb(192,0,0)" stroke="rgb(192,0,0)" stroke-width="1" opacity="1" d="M 212.5 424 L 215 427.5 L 213 426.5 L 212.5 424 Z " /><path fill="rgb(192,0,0)" stroke="rgb(192,0,0)" stroke-width="1" opacity="1" d="M 590.5 425 L 592 429.5 L 591 429.5 L 590.5 425 Z " /><path fill="rgb(192,0,0)" stroke="rgb(192,0,0)" stroke-width="1" opacity="1" d="M 281.5 426 L 287 429.5 L 285.5 429 Q 281.5 428.5 281.5 426 Z " /><path fill="rgb(192,0,0)" stroke="rgb(192,0,0)" stroke-width="1" opacity="1" d="M 562.5 427 L 569 428 L 570 430.5 L 567.5 429 Q 562 430 562.5 427 Z " /><path fill="rgb(192,0,0)" stroke="rgb(192,0,0)" stroke-width="1" opacity="1" d="M 216.5 430 L 219.5 434 L 216.5 430 Z " /><path fill="rgb(192,0,0)" stroke="rgb(192,0,0)" stroke-width="1" opacity="1" d="M 290.5 431 L 291.5 433 L 290.5 431 Z " /><path fill="rgb(192,0,0)" stroke="rgb(192,0,0)" stroke-width="1" opacity="1" d="M 571.5 431 L 572.5 433 L 571.5 431 Z " /><path fill="rgb(192,0,0)" stroke="rgb(192,0,0)" stroke-width="1" opacity="1" d="M 586.5 431 L 587 436.5 L 586 436.5 L 586.5 431 Z " /><path fill="rgb(192,0,0)" stroke="rgb(192,0,0)" stroke-width="1" opacity="1" d="M 592.5 432 L 593 439.5 L 592 439.5 L 592.5 432 Z " /><path fill="rgb(192,0,0)" stroke="rgb(192,0,0)" stroke-width="1" opacity="1" d="M 293.5 433 L 299.5 440 L 293.5 433 Z " /><path fill="rgb(192,0,0)" stroke="rgb(192,0,0)" stroke-width="1" opacity="1" d="M 560.5 433 L 560 434.5 L 559.5 436 L 559 434.5 L 560.5 433 Z " /><path fill="rgb(192,0,0)" stroke="rgb(192,0,0)" stroke-width="1" opacity="1" d="M 221.5 434 L 223.5 437 L 221.5 434 Z " /><path fill="rgb(192,0,0)" stroke="rgb(192,0,0)" stroke-width="1" opacity="1" d="M 569.5 434 L 572 435.5 L 570.5 435 L 569.5 434 Z " /><path fill="rgb(192,0,0)" stroke="rgb(192,0,0)" stroke-width="1" opacity="1" d="M 575.5 434 L 576.5 436 L 575.5 434 Z " /><path fill="rgb(192,0,0)" stroke="rgb(192,0,0)" stroke-width="1" opacity="1" d="M 573.5 436 L 577 440.5 L 576 440.5 L 573.5 436 Z " /><path fill="rgb(192,0,0)" stroke="rgb(192,0,0)" stroke-width="1" opacity="1" d="M 984.5 436 L 987.5 440 L 984.5 436 Z " /><path fill="rgb(192,0,0)" stroke="rgb(192,0,0)" stroke-width="1" opacity="1" d="M 577.5 437 Q 580.3 438.4 579 443 L 577 442.5 L 578 438.5 L 577.5 437 Z " /><path fill="rgb(192,0,0)" stroke="rgb(192,0,0)" stroke-width="1" opacity="1" d="M 691.5 437 L 690.5 439 L 691.5 437 Z " /><path fill="rgb(192,0,0)" stroke="rgb(192,0,0)" stroke-width="1" opacity="1" d="M 229.5 439 L 230.5 441 L 229.5 439 Z " /><path fill="rgb(192,0,0)" stroke="rgb(192,0,0)" stroke-width="1" opacity="1" d="M 585.5 439 L 586 441.5 L 585 441.5 L 585.5 439 Z " /><path fill="rgb(192,0,0)" stroke="rgb(192,0,0)" stroke-width="1" opacity="1" d="M 300.5 441 L 301.5 443 L 300.5 441 Z " /><path fill="rgb(192,0,0)" stroke="rgb(192,0,0)" stroke-width="1" opacity="1" d="M 991.5 441 L 995 443.5 L 993.5 443 L 991.5 441 Z " /><path fill="rgb(192,0,0)" stroke="rgb(192,0,0)" stroke-width="1" opacity="1" d="M 591.5 442 L 592 444.5 L 591 444.5 L 591.5 442 Z " /><path fill="rgb(192,0,0)" stroke="rgb(192,0,0)" stroke-width="1" opacity="1" d="M 947.5 442 L 948 444.5 L 947 444.5 L 947.5 442 Z " /><path fill="rgb(192,0,0)" stroke="rgb(192,0,0)" stroke-width="1" opacity="1" d="M 678.5 444 L 677.5 446 L 678.5 444 Z " /><path fill="rgb(192,0,0)" stroke="rgb(192,0,0)" stroke-width="1" opacity="1" d="M 242.5 446 L 246 448.5 L 244.5 448 L 242.5 446 Z " /><path fill="rgb(192,0,0)" stroke="rgb(192,0,0)" stroke-width="1" opacity="1" d="M 560.5 447 L 564 451.5 L 560 448.5 L 560.5 447 Z " /><path fill="rgb(192,0,0)" stroke="rgb(192,0,0)" stroke-width="1" opacity="1" d="M 582.5 447 L 578.5 452 L 582.5 447 Z " /><path fill="rgb(192,0,0)" stroke="rgb(192,0,0)" stroke-width="1" opacity="1" d="M 949.5 449 L 951 451.5 L 949 450.5 L 949.5 449 Z " /><path fill="rgb(192,0,0)" stroke="rgb(192,0,0)" stroke-width="1" opacity="1" d="M 1010.5 451 L 1011.5 453 L 1010.5 451 Z " /><path fill="rgb(192,0,0)" stroke="rgb(192,0,0)" stroke-width="1" opacity="1" d="M 663.5 452 L 662.5 454 L 663.5 452 Z " /><path fill="rgb(192,0,0)" stroke="rgb(192,0,0)" stroke-width="1" opacity="1" d="M 255.5 453 L 256.5 455 L 255.5 453 Z " /><path fill="rgb(192,0,0)" stroke="rgb(192,0,0)" stroke-width="1" opacity="1" d="M 568.5 453 L 574 453.5 L 568.5 454 L 568.5 453 Z " /><path fill="rgb(192,0,0)" stroke="rgb(192,0,0)" stroke-width="1" opacity="1" d="M 588.5 453 L 589 454.5 L 586.5 458 L 573 457.5 L 587 457 L 588.5 453 Z " /><path fill="rgb(192,0,0)" stroke="rgb(192,0,0)" stroke-width="1" opacity="1" d="M 951.5 453 L 956.5 459 L 951.5 453 Z " /><path fill="rgb(192,0,0)" stroke="rgb(192,0,0)" stroke-width="1" opacity="1" d="M 258.5 455 L 259.5 457 L 258.5 455 Z " /><path fill="rgb(192,0,0)" stroke="rgb(192,0,0)" stroke-width="1" opacity="1" d="M 1017.5 455 L 1018.5 457 L 1017.5 455 Z " /><path fill="rgb(192,0,0)" stroke="rgb(192,0,0)" stroke-width="1" opacity="1" d="M 305.5 456 L 306 522.5 L 305 522.5 L 305.5 456 Z " /><path fill="rgb(192,0,0)" stroke="rgb(192,0,0)" stroke-width="1" opacity="1" d="M 655.5 457 L 653.5 460 L 655.5 457 Z " /><path fill="rgb(192,0,0)" stroke="rgb(192,0,0)" stroke-width="1" opacity="1" d="M 1020.5 457 L 1025.5 463 L 1020.5 457 Z " /><path fill="rgb(192,0,0)" stroke="rgb(192,0,0)" stroke-width="1" opacity="1" d="M 570.5 458 L 572 458.5 L 568.5 460 L 568.5 459 L 570.5 458 Z " /><path fill="rgb(192,0,0)" stroke="rgb(192,0,0)" stroke-width="1" opacity="1" d="M 262.5 459 L 264 461.5 L 263 461.5 L 262.5 459 Z " /><path fill="rgb(192,0,0)" stroke="rgb(192,0,0)" stroke-width="1" opacity="1" d="M 958.5 459 L 959.5 461 L 958.5 459 Z " /><path fill="rgb(192,0,0)" stroke="rgb(192,0,0)" stroke-width="1" opacity="1" d="M 209.5 460 L 251 460.5 L 209.5 461 L 209.5 460 Z " /><path fill="rgb(192,0,0)" stroke="rgb(192,0,0)" stroke-width="1" opacity="1" d="M 565.5 460 L 567 460.5 L 560.5 464 L 561.5 462 L 565.5 460 Z " /><path fill="rgb(192,0,0)" stroke="rgb(192,0,0)" stroke-width="1" opacity="1" d="M 649.5 463 L 648.5 465 L 649.5 463 Z " /><path fill="rgb(192,0,0)" stroke="rgb(192,0,0)" stroke-width="1" opacity="1" d="M 965.5 463 L 978 469.5 L 976.5 470 L 966.5 465 L 965.5 463 Z " /><path fill="rgb(192,0,0)" stroke="rgb(192,0,0)" stroke-width="1" opacity="1" d="M 558.5 464 L 557.5 466 L 558.5 464 Z " /><path fill="rgb(192,0,0)" stroke="rgb(192,0,0)" stroke-width="1" opacity="1" d="M 1026.5 464 L 1029 469.5 L 1028 469.5 L 1026.5 464 Z " /><path fill="rgb(192,0,0)" stroke="rgb(192,0,0)" stroke-width="1" opacity="1" d="M 556.5 467 L 557 471.5 L 556 471.5 L 556.5 467 Z " /><path fill="rgb(192,0,0)" stroke="rgb(192,0,0)" stroke-width="1" opacity="1" d="M 689.5 469 L 688.5 471 L 686.5 472 L 687.5 470 L 689.5 469 Z " /><path fill="rgb(192,0,0)" stroke="rgb(192,0,0)" stroke-width="1" opacity="1" d="M 645.5 470 L 646 472.5 L 645 472.5 L 645.5 470 Z " /><path fill="rgb(192,0,0)" stroke="rgb(192,0,0)" stroke-width="1" opacity="1" d="M 979.5 470 L 987 474.5 L 985.5 474 Q 979.9 473.2 979.5 470 Z " /><path fill="rgb(192,0,0)" stroke="rgb(192,0,0)" stroke-width="1" opacity="1" d="M 1029.5 471 L 1030 474.5 L 1029 474.5 L 1029.5 471 Z " /><path fill="rgb(192,0,0)" stroke="rgb(192,0,0)" stroke-width="1" opacity="1" d="M 684.5 472 L 681.5 476 L 684.5 472 Z " /><path fill="rgb(192,0,0)" stroke="rgb(192,0,0)" stroke-width="1" opacity="1" d="M 644.5 475 L 645 525.5 L 644 525.5 L 644.5 475 Z " /><path fill="rgb(192,0,0)" stroke="rgb(192,0,0)" stroke-width="1" opacity="1" d="M 988.5 475 L 990.5 478 L 988.5 475 Z " /><path fill="rgb(192,0,0)" stroke="rgb(192,0,0)" stroke-width="1" opacity="1" d="M 555.5 478 L 556 485.5 L 555 485.5 L 555.5 478 Z " /><path fill="rgb(192,0,0)" stroke="rgb(192,0,0)" stroke-width="1" opacity="1" d="M 1030.5 484 L 1031 514.5 L 1030 514.5 L 1030.5 484 Z " /><path fill="rgb(192,0,0)" stroke="rgb(192,0,0)" stroke-width="1" opacity="1" d="M 948.5 486 L 983 486.5 L 948.5 487 L 948.5 486 Z " /><path fill="rgb(192,0,0)" stroke="rgb(192,0,0)" stroke-width="1" opacity="1" d="M 982.5 488 L 983 520.5 L 982 520.5 L 982.5 488 Z " /><path fill="rgb(192,0,0)" stroke="rgb(192,0,0)" stroke-width="1" opacity="1" d="M 554.5 494 L 555 517.5 L 554 517.5 L 554.5 494 Z " /><path fill="rgb(192,0,0)" stroke="rgb(192,0,0)" stroke-width="1" opacity="1" d="M 522.5 504 L 523 542.5 L 521 543.5 L 522 542.5 L 522.5 504 Z " /><path fill="rgb(192,0,0)" stroke="rgb(192,0,0)" stroke-width="1" opacity="1" d="M 471.5 519 L 472 523.5 L 468 526.5 Q 472 525 471.5 519 Z " /><path fill="rgb(192,0,0)" stroke="rgb(192,0,0)" stroke-width="1" opacity="1" d="M 251.5 520 L 253 522.5 L 251 521.5 L 251.5 520 Z " /><path fill="rgb(192,0,0)" stroke="rgb(192,0,0)" stroke-width="1" opacity="1" d="M 460.5 520 L 462 525.5 L 461 525.5 L 460.5 520 Z " /><path fill="rgb(192,0,0)" stroke="rgb(192,0,0)" stroke-width="1" opacity="1" d="M 209.5 523 L 210 528.5 L 209 528.5 L 209.5 523 Z " /><path fill="rgb(192,0,0)" stroke="rgb(192,0,0)" stroke-width="1" opacity="1" d="M 691.5 523 L 692 525.5 L 691 525.5 L 691.5 523 Z " /><path fill="rgb(192,0,0)" stroke="rgb(192,0,0)" stroke-width="1" opacity="1" d="M 554.5 524 L 555 540.5 L 552 543.5 L 552 552.5 L 550.5 554 L 551 552.5 Q 548.8 542.8 554 540.5 L 554.5 524 Z " /><path fill="rgb(192,0,0)" stroke="rgb(192,0,0)" stroke-width="1" opacity="1" d="M 323.5 525 L 324 530.5 L 323 530.5 L 323.5 525 Z " /><path fill="rgb(192,0,0)" stroke="rgb(192,0,0)" stroke-width="1" opacity="1" d="M 848.5 525 L 849 532.5 L 848 532.5 L 848.5 525 Z " /><path fill="rgb(192,0,0)" stroke="rgb(192,0,0)" stroke-width="1" opacity="1" d="M 884.5 525 L 887 528.5 L 884 526.5 L 884.5 525 Z " /><path fill="rgb(192,0,0)" stroke="rgb(192,0,0)" stroke-width="1" opacity="1" d="M 993.5 525 L 994 526.5 L 991 528.5 L 993.5 525 Z " /><path fill="rgb(192,0,0)" stroke="rgb(192,0,0)" stroke-width="1" opacity="1" d="M 894.5 526 L 892.5 529 L 894.5 526 Z " /><path fill="rgb(192,0,0)" stroke="rgb(192,0,0)" stroke-width="1" opacity="1" d="M 1029.5 526 L 1030 532.5 L 1029 532.5 L 1029.5 526 Z " /><path fill="rgb(192,0,0)" stroke="rgb(192,0,0)" stroke-width="1" opacity="1" d="M 506.5 527 L 507 531.5 L 506 531.5 L 506.5 527 Z " /><path fill="rgb(192,0,0)" stroke="rgb(192,0,0)" stroke-width="1" opacity="1" d="M 690.5 527 L 689.5 529 L 688 528.5 L 690.5 527 Z " /><path fill="rgb(192,0,0)" stroke="rgb(192,0,0)" stroke-width="1" opacity="1" d="M 947.5 527 L 948 531.5 L 947 531.5 L 947.5 527 Z " /><path fill="rgb(192,0,0)" stroke="rgb(192,0,0)" stroke-width="1" opacity="1" d="M 984.5 527 L 985.5 529 L 984.5 527 Z " /><path fill="rgb(192,0,0)" stroke="rgb(192,0,0)" stroke-width="1" opacity="1" d="M 304.5 529 L 305 532.5 L 304 532.5 L 304.5 529 Z " /><path fill="rgb(192,0,0)" stroke="rgb(192,0,0)" stroke-width="1" opacity="1" d="M 645.5 530 L 646 533.5 L 645 533.5 L 645.5 530 Z " /><path fill="rgb(192,0,0)" stroke="rgb(192,0,0)" stroke-width="1" opacity="1" d="M 405.5 531 L 406 534.5 L 405 534.5 L 405.5 531 Z " /><path fill="rgb(192,0,0)" stroke="rgb(192,0,0)" stroke-width="1" opacity="1" d="M 930.5 531 L 931 533.5 L 930 533.5 L 930.5 531 Z " /><path fill="rgb(192,0,0)" stroke="rgb(192,0,0)" stroke-width="1" opacity="1" d="M 210.5 532 L 211 534.5 L 210 534.5 L 210.5 532 Z " /><path fill="rgb(192,0,0)" stroke="rgb(192,0,0)" stroke-width="1" opacity="1" d="M 505.5 534 L 506 536.5 L 505 536.5 L 505.5 534 Z " /><path fill="rgb(192,0,0)" stroke="rgb(192,0,0)" stroke-width="1" opacity="1" d="M 849.5 534 L 851 539.5 L 850 539.5 L 849.5 534 Z " /><path fill="rgb(192,0,0)" stroke="rgb(192,0,0)" stroke-width="1" opacity="1" d="M 1028.5 535 L 1029 537.5 L 1028 537.5 L 1028.5 535 Z " /><path fill="rgb(192,0,0)" stroke="rgb(192,0,0)" stroke-width="1" opacity="1" d="M 404.5 536 L 405 538.5 L 404 538.5 L 404.5 536 Z " /><path fill="rgb(192,0,0)" stroke="rgb(192,0,0)" stroke-width="1" opacity="1" d="M 646.5 536 L 647 538.5 L 646 538.5 L 646.5 536 Z " /><path fill="rgb(192,0,0)" stroke="rgb(192,0,0)" stroke-width="1" opacity="1" d="M 212.5 539 L 215 543.5 L 213 542.5 L 212.5 539 Z " /><path fill="rgb(192,0,0)" stroke="rgb(192,0,0)" stroke-width="1" opacity="1" d="M 647.5 540 L 649 543.5 L 648 543.5 L 647.5 540 Z " /><path fill="rgb(192,0,0)" stroke="rgb(192,0,0)" stroke-width="1" opacity="1" d="M 927.5 542 L 926.5 544 L 927.5 542 Z " /><path fill="rgb(192,0,0)" stroke="rgb(192,0,0)" stroke-width="1" opacity="1" d="M 950.5 542 L 951.5 544 L 950.5 542 Z " /><path fill="rgb(192,0,0)" stroke="rgb(192,0,0)" stroke-width="1" opacity="1" d="M 1026.5 542 L 1026 543.5 L 1021.5 549 L 1025 544.5 L 1026.5 542 Z " /><path fill="rgb(192,0,0)" stroke="rgb(192,0,0)" stroke-width="1" opacity="1" d="M 327.5 543 L 328.5 545 L 327.5 543 Z " /><path fill="rgb(192,0,0)" stroke="rgb(192,0,0)" stroke-width="1" opacity="1" d="M 852.5 543 L 853.5 545 L 852.5 543 Z " /><path fill="rgb(192,0,0)" stroke="rgb(192,0,0)" stroke-width="1" opacity="1" d="M 401.5 544 L 397.5 549 L 401.5 544 Z " /><path fill="rgb(192,0,0)" stroke="rgb(192,0,0)" stroke-width="1" opacity="1" d="M 215.5 545 L 217.5 548 L 215.5 545 Z " /><path fill="rgb(192,0,0)" stroke="rgb(192,0,0)" stroke-width="1" opacity="1" d="M 501.5 545 L 500.5 547 L 501.5 545 Z " /><path fill="rgb(192,0,0)" stroke="rgb(192,0,0)" stroke-width="1" opacity="1" d="M 519.5 545 L 517.5 548 L 519.5 545 Z " /><path fill="rgb(192,0,0)" stroke="rgb(192,0,0)" stroke-width="1" opacity="1" d="M 649.5 545 L 654.5 551 L 649.5 545 Z " /><path fill="rgb(192,0,0)" stroke="rgb(192,0,0)" stroke-width="1" opacity="1" d="M 925.5 545 L 922.5 549 L 925.5 545 Z " /><path fill="rgb(192,0,0)" stroke="rgb(192,0,0)" stroke-width="1" opacity="1" d="M 952.5 545 L 955.5 549 L 952.5 545 Z " /><path fill="rgb(192,0,0)" stroke="rgb(192,0,0)" stroke-width="1" opacity="1" d="M 298.5 546 L 297.5 548 L 298.5 546 Z " /><path fill="rgb(192,0,0)" stroke="rgb(192,0,0)" stroke-width="1" opacity="1" d="M 460.5 546 L 464 548.5 L 461.5 547 L 460.5 546 Z " /><path fill="rgb(192,0,0)" stroke="rgb(192,0,0)" stroke-width="1" opacity="1" d="M 690.5 546 L 692 546.5 L 688.5 549 L 690.5 546 Z " /><path fill="rgb(192,0,0)" stroke="rgb(192,0,0)" stroke-width="1" opacity="1" d="M 219.5 548 L 220.5 550 L 219.5 548 Z " /><path fill="rgb(192,0,0)" stroke="rgb(192,0,0)" stroke-width="1" opacity="1" d="M 295.5 548 L 294.5 550 L 295.5 548 Z " /><path fill="rgb(192,0,0)" stroke="rgb(192,0,0)" stroke-width="1" opacity="1" d="M 332.5 548 L 333.5 550 L 332.5 548 Z " /><path fill="rgb(192,0,0)" stroke="rgb(192,0,0)" stroke-width="1" opacity="1" d="M 857.5 548 L 858.5 550 L 857.5 548 Z " /><path fill="rgb(192,0,0)" stroke="rgb(192,0,0)" stroke-width="1" opacity="1" d="M 465.5 549 L 466.5 551 L 465.5 549 Z " /><path fill="rgb(192,0,0)" stroke="rgb(192,0,0)" stroke-width="1" opacity="1" d="M 497.5 549 L 496.5 551 L 497.5 549 Z " /><path fill="rgb(192,0,0)" stroke="rgb(192,0,0)" stroke-width="1" opacity="1" d="M 517.5 549 L 524 558.5 L 522 557.5 L 522 555.5 L 517 550.5 L 517.5 549 Z " /><path fill="rgb(192,0,0)" stroke="rgb(192,0,0)" stroke-width="1" opacity="1" d="M 686.5 549 L 685.5 551 L 682.5 552 L 682.5 551 L 686.5 549 Z " /><path fill="rgb(192,0,0)" stroke="rgb(192,0,0)" stroke-width="1" opacity="1" d="M 957.5 549 L 960 550.5 L 958.5 551 L 957.5 549 Z " /><path fill="rgb(192,0,0)" stroke="rgb(192,0,0)" stroke-width="1" opacity="1" d="M 1019.5 549 L 1018.5 551 L 1017 550.5 L 1019.5 549 Z " /><path fill="rgb(192,0,0)" stroke="rgb(192,0,0)" stroke-width="1" opacity="1" d="M 494.5 551 L 493.5 553 L 492 552.5 L 494.5 551 Z " /><path fill="rgb(192,0,0)" stroke="rgb(192,0,0)" stroke-width="1" opacity="1" d="M 386.5 552 L 389 552.5 L 386.5 553 L 386.5 552 Z " /><path fill="rgb(192,0,0)" stroke="rgb(192,0,0)" stroke-width="1" opacity="1" d="M 865.5 552 L 868 552.5 L 865.5 553 L 865.5 552 Z " /><path fill="rgb(192,0,0)" stroke="rgb(192,0,0)" stroke-width="1" opacity="1" d="M 911.5 552 L 914 552.5 L 911.5 553 L 911.5 552 Z " /><path fill="rgb(192,0,0)" stroke="rgb(192,0,0)" stroke-width="1" opacity="1" d="M 231.5 553 L 235 553.5 L 231.5 554 L 231.5 553 Z " /><path fill="rgb(192,0,0)" stroke="rgb(192,0,0)" stroke-width="1" opacity="1" d="M 280.5 553 L 284 553.5 L 280.5 554 L 280.5 553 Z " /><path fill="rgb(192,0,0)" stroke="rgb(192,0,0)" stroke-width="1" opacity="1" d="M 345.5 553 L 349 553.5 L 345.5 554 L 345.5 553 Z " /><path fill="rgb(192,0,0)" stroke="rgb(192,0,0)" stroke-width="1" opacity="1" d="M 379.5 553 L 384 553.5 L 379.5 554 L 379.5 553 Z " /><path fill="rgb(192,0,0)" stroke="rgb(192,0,0)" stroke-width="1" opacity="1" d="M 473.5 553 L 476 553.5 L 473.5 554 L 473.5 553 Z " /><path fill="rgb(192,0,0)" stroke="rgb(192,0,0)" stroke-width="1" opacity="1" d="M 538.5 553 L 546 553.5 L 538.5 554 L 538.5 553 Z " /><path fill="rgb(192,0,0)" stroke="rgb(192,0,0)" stroke-width="1" opacity="1" d="M 692.5 553 L 728 553.5 L 692.5 554 L 692.5 553 Z " /><path fill="rgb(192,0,0)" stroke="rgb(192,0,0)" stroke-width="1" opacity="1" d="M 870.5 553 L 874 553.5 L 870.5 554 L 870.5 553 Z " /><path fill="rgb(192,0,0)" stroke="rgb(192,0,0)" stroke-width="1" opacity="1" d="M 905.5 553 L 909 553.5 L 905.5 554 L 905.5 553 Z " /><path fill="rgb(192,0,0)" stroke="rgb(192,0,0)" stroke-width="1" opacity="1" d="M 969.5 553 L 973 553.5 L 969.5 554 L 969.5 553 Z " /><path fill="rgb(192,0,0)" stroke="rgb(192,0,0)" stroke-width="1" opacity="1" d="M 1004.5 553 L 1008 553.5 L 1004.5 554 L 1004.5 553 Z " /><path fill="rgb(192,0,0)" stroke="rgb(192,0,0)" stroke-width="1" opacity="1" d="M 238.5 554 L 247 554.5 L 238.5 555 L 238.5 554 Z " /><path fill="rgb(192,0,0)" stroke="rgb(192,0,0)" stroke-width="1" opacity="1" d="M 268.5 554 L 277 554.5 L 268.5 555 L 268.5 554 Z " /><path fill="rgb(192,0,0)" stroke="rgb(192,0,0)" stroke-width="1" opacity="1" d="M 356.5 554 L 373 554.5 L 356.5 555 L 356.5 554 Z " /><path fill="rgb(192,0,0)" stroke="rgb(192,0,0)" stroke-width="1" opacity="1" d="M 479.5 554 L 486 554.5 L 479.5 555 L 479.5 554 Z " /><path fill="rgb(192,0,0)" stroke="rgb(192,0,0)" stroke-width="1" opacity="1" d="M 535.5 554 L 534.5 556 L 535.5 554 Z " /><path fill="rgb(192,0,0)" stroke="rgb(192,0,0)" stroke-width="1" opacity="1" d="M 666.5 554 L 673 554.5 L 666.5 555 L 666.5 554 Z " /><path fill="rgb(192,0,0)" stroke="rgb(192,0,0)" stroke-width="1" opacity="1" d="M 880.5 554 L 898 554.5 L 880.5 555 L 880.5 554 Z " /><path fill="rgb(192,0,0)" stroke="rgb(192,0,0)" stroke-width="1" opacity="1" d="M 979.5 554 L 997 554.5 L 979.5 555 L 979.5 554 Z " /><path fill="rgb(192,0,0)" stroke="rgb(192,0,0)" stroke-width="1" opacity="1" d="M 534.5 557 L 533.5 559 L 534.5 557 Z " /><path fill="rgb(192,0,0)" stroke="rgb(192,0,0)" stroke-width="1" opacity="1" d="M 525.5 559 L 530 559.5 L 525.5 560 L 525.5 559 Z " /><path fill="rgb(251,0,0)" stroke="rgb(251,0,0)" stroke-width="1" opacity="1" d="M 225 334 L 227 334.5 L 225 335.5 L 225 334 Z " /><path fill="rgb(251,0,0)" stroke="rgb(251,0,0)" stroke-width="1" opacity="1" d="M 303.5 347 L 302.5 349 L 303.5 347 Z " /><path fill="rgb(251,0,0)" stroke="rgb(251,0,0)" stroke-width="1" opacity="1" d="M 626.5 370 L 627.5 372 L 626.5 370 Z " /><path fill="rgb(251,0,0)" stroke="rgb(251,0,0)" stroke-width="1" opacity="1" d="M 792.5 371 L 795 372.5 L 793.5 372 L 792.5 371 Z " /><path fill="rgb(251,0,0)" stroke="rgb(251,0,0)" stroke-width="1" opacity="1" d="M 797.5 371 L 796.5 373 L 797.5 371 Z " /><path fill="rgb(251,0,0)" stroke="rgb(251,0,0)" stroke-width="1" opacity="1" d="M 812.5 371 L 813.5 373 L 812.5 371 Z " /><path fill="rgb(251,0,0)" stroke="rgb(251,0,0)" stroke-width="1" opacity="1" d="M 339.5 372 L 340.5 374 L 339.5 372 Z " /><path fill="rgb(251,0,0)" stroke="rgb(251,0,0)" stroke-width="1" opacity="1" d="M 494.5 373 L 493.5 375 L 494.5 373 Z " /><path fill="rgb(251,0,0)" stroke="rgb(251,0,0)" stroke-width="1" opacity="1" d="M 964.5 373 L 965.5 375 Q 962.7 375.7 964.5 373 Z " /><path fill="rgb(251,0,0)" stroke="rgb(251,0,0)" stroke-width="1" opacity="1" d="M 596.5 374 L 597.5 376 L 596.5 374 Z " /><path fill="rgb(251,0,0)" stroke="rgb(251,0,0)" stroke-width="1" opacity="1" d="M 817.5 375 L 816.5 377 L 817.5 375 Z " /><path fill="rgb(251,0,0)" stroke="rgb(251,0,0)" stroke-width="1" opacity="1" d="M 1020.5 376 L 1022.5 379 L 1020.5 376 Z " /><path fill="rgb(251,0,0)" stroke="rgb(251,0,0)" stroke-width="1" opacity="1" d="M 958.5 381 L 958.5 384 Q 955.5 382.5 958.5 381 Z " /><path fill="rgb(251,0,0)" stroke="rgb(251,0,0)" stroke-width="1" opacity="1" d="M 778.5 382 L 781 382.5 Q 778.9 385.8 778.5 382 Z " /><path fill="rgb(251,0,0)" stroke="rgb(251,0,0)" stroke-width="1" opacity="1" d="M 401.5 385 L 400.5 387 L 401.5 385 Z " /><path fill="rgb(251,0,0)" stroke="rgb(251,0,0)" stroke-width="1" opacity="1" d="M 471.5 393 L 470.5 395 L 469 394.5 L 471.5 393 Z " /><path fill="rgb(251,0,0)" stroke="rgb(251,0,0)" stroke-width="1" opacity="1" d="M 779.5 395 L 781 397.5 L 779 396.5 L 779.5 395 Z " /><path fill="rgb(251,0,0)" stroke="rgb(251,0,0)" stroke-width="1" opacity="1" d="M 999.5 395 L 998.5 397 L 999.5 395 Z " /><path fill="rgb(251,0,0)" stroke="rgb(251,0,0)" stroke-width="1" opacity="1" d="M 524.5 396 L 523.5 398 L 524.5 396 Z " /><path fill="rgb(251,0,0)" stroke="rgb(251,0,0)" stroke-width="1" opacity="1" d="M 994 398 L 996 398.5 L 995.5 401 L 994 398 Z " /><path fill="rgb(251,0,0)" stroke="rgb(251,0,0)" stroke-width="1" opacity="1" d="M 371.5 401 L 372 403.5 L 371 403.5 L 371.5 401 Z " /><path fill="rgb(251,0,0)" stroke="rgb(251,0,0)" stroke-width="1" opacity="1" d="M 585.5 411 L 588 411.5 L 585.5 412 L 585.5 411 Z " /><path fill="rgb(251,0,0)" stroke="rgb(251,0,0)" stroke-width="1" opacity="1" d="M 250.5 412 L 252 412.5 L 249.5 414 L 250.5 412 Z " /><path fill="rgb(251,0,0)" stroke="rgb(251,0,0)" stroke-width="1" opacity="1" d="M 214.5 422 L 215.5 424 L 214.5 422 Z " /><path fill="rgb(251,0,0)" stroke="rgb(251,0,0)" stroke-width="1" opacity="1" d="M 679.5 424 L 680 428.5 L 679 428.5 L 679.5 424 Z " /><path fill="rgb(251,0,0)" stroke="rgb(251,0,0)" stroke-width="1" opacity="1" d="M 283.5 428 L 284 429.5 L 282 430.5 L 283.5 428 Z " /><path fill="rgb(251,0,0)" stroke="rgb(251,0,0)" stroke-width="1" opacity="1" d="M 230.5 433 L 231.5 435 L 230.5 433 Z " /><path fill="rgb(251,0,0)" stroke="rgb(251,0,0)" stroke-width="1" opacity="1" d="M 979.5 437 L 978.5 439 L 979.5 437 Z " /><path fill="rgb(251,0,0)" stroke="rgb(251,0,0)" stroke-width="1" opacity="1" d="M 588.5 440 L 589.5 442 L 587 441.5 L 588.5 440 Z " /><path fill="rgb(251,0,0)" stroke="rgb(251,0,0)" stroke-width="1" opacity="1" d="M 687.5 442 L 686.5 444 L 687.5 442 Z " /><path fill="rgb(251,0,0)" stroke="rgb(251,0,0)" stroke-width="1" opacity="1" d="M 244.5 443 Q 246.8 442.3 246 444.5 L 244.5 443 Z " /><path fill="rgb(251,0,0)" stroke="rgb(251,0,0)" stroke-width="1" opacity="1" d="M 301.5 446 L 300.5 448 L 301.5 446 Z " /><path fill="rgb(251,0,0)" stroke="rgb(251,0,0)" stroke-width="1" opacity="1" d="M 251.5 448 L 250.5 450 L 249 449.5 L 251.5 448 Z " /><path fill="rgb(251,0,0)" stroke="rgb(251,0,0)" stroke-width="1" opacity="1" d="M 302.5 448 L 303.5 450 L 302.5 448 Z " /><path fill="rgb(251,0,0)" stroke="rgb(251,0,0)" stroke-width="1" opacity="1" d="M 257.5 451 L 258.5 453 L 257.5 451 Z " /><path fill="rgb(251,0,0)" stroke="rgb(251,0,0)" stroke-width="1" opacity="1" d="M 956.5 452 L 957 454.5 L 955 453.5 L 956.5 452 Z " /><path fill="rgb(251,0,0)" stroke="rgb(251,0,0)" stroke-width="1" opacity="1" d="M 960.5 457 L 961.5 459 L 960.5 457 Z " /><path fill="rgb(251,0,0)" stroke="rgb(251,0,0)" stroke-width="1" opacity="1" d="M 967.5 460 L 966.5 462 L 967.5 460 Z " /><path fill="rgb(251,0,0)" stroke="rgb(251,0,0)" stroke-width="1" opacity="1" d="M 661.5 462 L 660.5 464 L 661.5 462 Z " /><path fill="rgb(251,0,0)" stroke="rgb(251,0,0)" stroke-width="1" opacity="1" d="M 650.5 465 L 649.5 467 L 650.5 465 Z " /><path fill="rgb(251,0,0)" stroke="rgb(251,0,0)" stroke-width="1" opacity="1" d="M 994.5 472 L 993.5 474 L 992 473.5 L 994.5 472 Z " /><path fill="rgb(251,0,0)" stroke="rgb(251,0,0)" stroke-width="1" opacity="1" d="M 555.5 473 L 556 475.5 L 555 475.5 L 555.5 473 Z " /><path fill="rgb(251,0,0)" stroke="rgb(251,0,0)" stroke-width="1" opacity="1" d="M 996.5 476 L 995.5 478 L 996.5 476 Z " /><path fill="rgb(251,0,0)" stroke="rgb(251,0,0)" stroke-width="1" opacity="1" d="M 979.5 526 L 978.5 528 L 979.5 526 Z " /><path fill="rgb(251,0,0)" stroke="rgb(251,0,0)" stroke-width="1" opacity="1" d="M 368.5 529 L 368.5 532 Q 365.5 530.5 368.5 529 Z " /><path fill="rgb(251,0,0)" stroke="rgb(251,0,0)" stroke-width="1" opacity="1" d="M 681.5 529 L 680.5 531 L 681.5 529 Z " /><path fill="rgb(251,0,0)" stroke="rgb(251,0,0)" stroke-width="1" opacity="1" d="M 893.5 530 L 894.5 532 L 893.5 530 Z " /><path fill="rgb(251,0,0)" stroke="rgb(251,0,0)" stroke-width="1" opacity="1" d="M 883.5 534 L 882.5 536 L 883.5 534 Z " /><path fill="rgb(251,0,0)" stroke="rgb(251,0,0)" stroke-width="1" opacity="1" d="M 652.5 538 L 654 540.5 L 652 539.5 L 652.5 538 Z " /><path fill="rgb(251,0,0)" stroke="rgb(251,0,0)" stroke-width="1" opacity="1" d="M 1024.5 538 L 1025.5 540 L 1024.5 538 Z " /><path fill="rgb(251,0,0)" stroke="rgb(251,0,0)" stroke-width="1" opacity="1" d="M 551.5 540 L 549.5 543 L 551.5 540 Z " /><path fill="rgb(251,0,0)" stroke="rgb(251,0,0)" stroke-width="1" opacity="1" d="M 527.5 541 L 526.5 543 L 527.5 541 Z " /><path fill="rgb(251,0,0)" stroke="rgb(251,0,0)" stroke-width="1" opacity="1" d="M 683.5 546 L 685.5 549 Q 683.8 545.9 682 547.5 L 683.5 546 Z " /><path fill="rgb(251,0,0)" stroke="rgb(251,0,0)" stroke-width="1" opacity="1" d="M 958.5 546 L 960.5 549 L 958.5 546 Z " /><path fill="rgb(251,0,0)" stroke="rgb(251,0,0)" stroke-width="1" opacity="1" d="M 292.5 547 L 293.5 549 L 292.5 547 Z " /><path fill="rgb(251,0,0)" stroke="rgb(251,0,0)" stroke-width="1" opacity="1" d="M 339.5 547 L 342 548.5 L 340.5 548 L 339.5 547 Z " /><path fill="rgb(251,0,0)" stroke="rgb(251,0,0)" stroke-width="1" opacity="1" d="M 1014.5 549 L 1013.5 551 L 1014.5 549 Z " /><path fill="rgb(251,0,0)" stroke="rgb(251,0,0)" stroke-width="1" opacity="1" d="M 528.5 552 L 529.5 554 L 528.5 552 Z " /><path fill="rgb(251,0,0)" stroke="rgb(251,0,0)" stroke-width="1" opacity="1" d="M 532.5 553 L 531.5 555 L 532.5 553 Z " /><path fill="rgb(251,0,0)" stroke="rgb(251,0,0)" stroke-width="1" opacity="1" d="M 526.5 555 L 527.5 557 L 526.5 555 Z " /><path fill="rgb(253,0,0)" stroke="rgb(253,0,0)" stroke-width="1" opacity="1" d="M 324 287 L 335 287 L 335 291 L 332 291.5 L 332 333.5 L 330.5 333 L 328.5 334 L 327 332.5 L 327 291 Q 322.1 292.6 324 287 Z " /><path fill="rgb(253,0,0)" stroke="rgb(253,0,0)" stroke-width="1" opacity="1" d="M 359 287 L 364 287.5 L 364 303.5 Q 361.8 304.8 364.5 306 L 368 305.5 L 368 288.5 L 367.5 287 Q 372 286.5 372 287.5 L 372 334 L 369.5 333 L 368 333.5 L 368 310.5 L 366.5 310 Q 365.3 307.8 364 310.5 L 364 330.5 L 363 331.5 L 363.5 333 L 361.5 334 L 359 333.5 L 359 287 Z " /><path fill="rgb(253,0,0)" stroke="rgb(253,0,0)" stroke-width="1" opacity="1" d="M 397 287 L 406 287 L 406 291 L 402 291.5 L 402 307 L 404.5 308 L 405.5 306 L 406 310 L 402 310.5 L 402 330 Q 407.6 327.8 406 333.5 L 404.5 333 L 402.5 334 L 398.5 333 L 397 333.5 L 397 287 Z " /><path fill="rgb(253,0,0)" stroke="rgb(253,0,0)" stroke-width="1" opacity="1" d="M 240.5 327 L 274.5 327 Q 276.3 329.8 282.5 328 L 284.5 330 L 286.5 329 Q 295.4 331.1 300 337.5 L 303 344.5 L 305 354.5 L 305 405 L 265 405 L 265 364.5 L 264 359.5 L 260.5 356 Q 252.7 354.2 251 358.5 L 250 360.5 L 250 406.5 L 254.5 413 L 283 428 L 283.5 430 L 285.5 430 Q 294.2 432.8 299 439.5 L 303 447.5 Q 300.5 449 304 450.5 L 305 453.5 L 305 527.5 L 302 540.5 L 297.5 547 Q 292.7 551.7 284.5 553 L 254.5 555 L 252.5 555 L 250.5 554 L 230.5 553 L 220.5 549 L 216 545.5 Q 211.5 539.5 210 530.5 L 210 519.5 L 209 518.5 L 209 461 L 250 461 L 250 520.5 L 254.5 526 L 256.5 526 Q 261.6 526.6 263 523.5 L 265 516.5 L 265 465.5 L 263 458.5 L 259.5 455 L 251 451 Q 252.3 448 248.5 449 L 238.5 443 L 234 442 L 233.5 440 L 231.5 440 Q 222.4 437.1 217 430.5 L 212 422.5 L 209 409.5 L 209 362.5 L 210 361.5 L 210 351.5 L 213 340.5 L 219.5 333 L 228.5 329 L 239.5 328 L 240.5 327 Z M 225 334 L 225 336 L 227 335 L 225 334 Z M 245 443 L 246 445 Q 247 442 245 443 Z " /><path fill="rgb(253,0,0)" stroke="rgb(253,0,0)" stroke-width="1" opacity="1" d="M 554.5 364 Q 557.5 363.5 556 370.5 L 560.5 377 Q 564.2 380.3 572.5 379 L 611.5 367 L 626.5 367 L 628 370 Q 631.8 369 633 371.5 L 631 374.5 L 631 388.5 L 632 389.5 L 633 407 L 605.5 408 L 590 413 Q 587.4 415.3 588 421.5 L 591 429.5 Q 588.5 431 592 432.5 L 591 445.5 L 587 457 L 579.5 456 L 569.5 458 L 560.5 463 Q 559.3 460.7 558 463.5 L 556 466.5 L 555 487.5 L 554 488.5 L 555 490.5 L 554 491.5 L 554 540.5 L 551 543.5 L 551 553 L 537.5 553 L 534 555.5 Q 535.1 558.8 532.5 558 Q 530.8 560.8 524.5 559 L 518 550.5 L 518 547.5 L 523 544 L 523 431.5 L 522 430.5 L 522 394.5 L 520.5 393 Q 517.9 393.7 519 391 L 523 388.5 L 523 385.5 L 527 381.5 L 527 378.5 L 526 374.5 L 527.5 375 L 538.5 376 L 549.5 371 L 552 368.5 L 554.5 364 Z M 586 411 L 586 412 L 588 412 L 586 411 Z M 572 415 L 561 418 L 559 422 L 559 426 Q 560 430 568 429 L 578 439 L 578 442 L 577 440 Q 573 431 559 433 L 558 436 Q 557 447 561 451 L 571 455 L 579 452 Q 585 448 587 439 L 587 431 L 584 423 Q 581 416 572 415 Z " /><path fill="rgb(253,0,0)" stroke="rgb(253,0,0)" stroke-width="1" opacity="1" d="M 357.5 369 L 383.5 370 L 393.5 373 L 401 378.5 L 404 384.5 L 406 394.5 L 406 528.5 Q 403.5 530 405 535.5 L 402 540.5 Q 404.5 542 401 543.5 L 397.5 548 L 389.5 552 L 378.5 553 L 377.5 554 L 351.5 554 L 337.5 551 L 328 543.5 L 324 532.5 L 324 390.5 L 327 380.5 L 330 376 L 338.5 372 Q 340 374.5 341.5 371 L 356.5 370 L 357.5 369 Z M 364 393 L 362 394 L 359 397 L 358 401 L 358 522 L 360 528 Q 361 531 367 530 L 369 530 Q 372 529 371 524 L 372 521 L 372 402 L 371 397 Q 370 392 364 393 Z " /><path fill="rgb(253,0,0)" stroke="rgb(253,0,0)" stroke-width="1" opacity="1" d="M 478.5 369 L 492.5 371 L 501 377.5 L 505 386.5 L 506 402.5 L 507 403.5 L 507 519.5 L 506 520.5 L 506 530.5 L 503 541.5 L 496.5 550 Q 490.5 555.5 477.5 554 L 470.5 552 L 459 545 L 459 596 L 425 596 L 425 371.5 L 425.5 371 L 459 371 L 458 377.5 L 460.5 378 L 466.5 373 L 478.5 369 Z M 465 395 L 463 396 L 459 404 L 459 521 L 460 525 Q 462 529 470 527 L 473 520 L 473 404 L 471 398 Q 470 394 465 395 Z " /><path fill="rgb(253,0,0)" stroke="rgb(253,0,0)" stroke-width="1" opacity="1" d="M 678.5 369 L 693.5 369 L 694.5 370 L 709.5 371 Q 718.8 372.8 723 379.5 L 727 391.5 L 727 393.5 L 727 552.5 L 726.5 553 L 692 553 L 692 546.5 L 690.5 546 Q 682.6 555.1 664.5 554 L 660 553 L 659.5 551 L 657.5 552 L 650 545.5 L 647 538.5 L 645 527.5 L 645 474.5 Q 647.1 462.1 656.5 457 L 692 439 L 692 399.5 L 693 398.5 L 689.5 394 L 684.5 393 L 680 396.5 L 679 400.5 L 679 428.5 L 680 431 L 645 431 L 645 392.5 L 647 388.5 L 647 386.5 Q 647.5 379 652.5 376 L 655.5 374 L 662.5 371 L 677.5 370 L 678.5 369 Z M 691 468 L 684 472 L 681 475 L 679 481 L 679 520 Q 682 521 680 527 L 686 530 L 690 529 L 692 526 L 692 469 L 691 468 Z " /><path fill="rgb(253,0,0)" stroke="rgb(253,0,0)" stroke-width="1" opacity="1" d="M 801.5 369 L 812 370 L 812.5 372 L 814.5 371 Q 821.4 372.6 824 378.5 L 827 385.5 L 828 396.5 L 829 397.5 L 829 553 L 795.5 553 L 795 552.5 L 795 400.5 L 793 396 Q 790.9 394.4 785.5 395 L 782 399.5 L 782 553 L 747.5 553 L 747 552.5 L 747 375.5 L 747 373.5 L 747.5 371 L 780.5 371 L 782 370.5 L 782 377.5 L 784 378 Q 782.9 375.3 785.5 376 L 795.5 370 Q 800.2 371.3 801.5 369 Z M 780 395 L 779 397 L 781 398 L 780 395 Z " /><path fill="rgb(253,0,0)" stroke="rgb(253,0,0)" stroke-width="1" opacity="1" d="M 882.5 369 L 896.5 369 L 897.5 370 L 912.5 371 Q 922.4 373.1 927 380.5 L 928 382.5 L 928 384.5 L 930 392.5 L 930 394.5 L 930 532.5 L 928 541 L 926 541.5 L 926 543.5 L 922.5 548 L 909.5 553 Q 903.2 551.3 901.5 554 L 876.5 554 L 875.5 553 L 864.5 552 Q 857.1 549.4 853 543.5 L 849 531.5 L 849 393.5 L 849 391.5 Q 850.1 380.1 857.5 375 L 866.5 371 L 881.5 370 L 882.5 369 Z M 888 393 L 885 394 L 883 398 L 883 525 L 884 527 L 889 530 L 894 529 L 896 525 L 896 399 L 894 394 L 888 393 Z " /><path fill="rgb(253,0,0)" stroke="rgb(253,0,0)" stroke-width="1" opacity="1" d="M 982.5 369 L 997.5 369 L 1007.5 371 L 1009.5 371 Q 1020.4 371.6 1025 378.5 L 1027 382.5 L 1027 384.5 L 1029 389.5 L 1029 398.5 L 1030 399.5 L 1030 431 L 995 431 L 995 401.5 L 995.5 398 Q 992.9 398.8 994 395.5 Q 992.3 392.2 986.5 393 L 984 394 L 982 400.5 L 982 430.5 L 983 433.5 L 982.5 435 Q 984.8 434.3 984 436.5 L 986.5 440 L 1014.5 454 L 1026 463.5 L 1029 470.5 Q 1027.5 476 1030 477.5 L 1030 523.5 L 1028 528.5 L 1029 533.5 L 1025 544.5 L 1021.5 548 L 1013.5 552 L 1002.5 553 L 1001.5 554 L 999.5 554 L 974.5 554 Q 973 551.5 967.5 553 Q 957.3 551.3 952 544.5 L 949 537.5 L 948 525.5 L 947 524.5 L 947 487 L 982 487 L 982 522.5 L 983 526.5 L 985.5 529 L 990.5 530 Q 996 528.4 995 522 L 997 521.5 L 995 521 L 995 481.5 L 989.5 475 L 959.5 460 L 951 452.5 L 947 439.5 L 947 398.5 L 950 383.5 L 957.5 374 L 970.5 370 L 981.5 370 L 982.5 369 Z M 965 373 Q 963 376 966 375 L 965 373 Z M 957 452 L 955 454 L 957 455 L 957 452 Z " /></svg>